<?xml version="1.0" encoding="utf-8"?>
<!-- Generator: Adobe Illustrator 18.1.1, SVG Export Plug-In . SVG Version: 6.00 Build 0)  -->
<svg version="1.1" id="Layer_1" xmlns="http://www.w3.org/2000/svg" xmlns:xlink="http://www.w3.org/1999/xlink" x="0px" y="0px"
	 viewBox="0 0 518.0658 116.90365" enable-background="new 0 0 518.0658 116.90365" xml:space="preserve">
<g>
	<path fill="#0033A0" d="M41.32945,92.61912c-8.74514,0-16.78109-2.97234-23.2171-7.91734
		c7.03629-16.74962,22.48854-39.928,43.87336-62.40445c10.5508,6.79909,17.55805,18.62548,17.55805,32.1099
		c0,5.80428-1.33367,11.28663-3.65006,16.2147c-6.97094-3.04736-13.48925-6.94915-18.94014-11.98372l11.86997,22.26828
		C61.86953,88.11463,52.13441,92.61912,41.32945,92.61912 M3.1224,54.40723c0-21.10404,17.10301-38.20463,38.20705-38.20463
		c5.95435,0,11.56499,1.40145,16.59229,3.82918C36.7935,38.33776,20.63689,59.95009,11.52868,78.28996
		C6.28111,71.7426,3.1224,63.45008,3.1224,54.40723 M143.64738,83.69728c0-2.59474-35.65105-0.24931-64.87333-11.87481
		c2.47129-5.29839,3.88969-11.18497,3.88969-17.41525c0-14.36546-7.33401-27.00272-18.45605-34.41177
		C70.83735,13.1746,77.9874,6.44086,85.6264,0c-8.94604,5.25724-17.34022,11.30842-25.11234,17.81705
		c-5.7365-3.01106-12.25482-4.73685-19.18461-4.73685C18.50446,13.0802,0,31.57982,0,54.40723
		c0,10.31118,3.80255,19.72195,10.04977,26.95914c-7.91734,17.11028-9.33331,30.88757-2.35269,35.53728
		c7.4623,4.9789,23.71088-4.04218,33.45084-18.74409c0,0-15.07466,13.59818-23.34298,10.47093
		c-5.1096-1.92911-5.10476-9.74721-0.89315-20.93218c6.8475,5.03215,15.27072,8.03837,24.41766,8.03837
		c11.32293,0,21.57361-4.56016,29.03833-11.93532l1.4789,2.77628C89.85737,85.1181,143.64738,83.69728,143.64738,83.69728"/>
</g>
<polygon fill="#0033A0" points="297.90945,25.08279 344.75272,25.08279 337.99722,34.0361 314.54529,34.0361 308.76523,41.70413 
	332.22437,41.70655 325.48581,50.64775 302.02426,50.64775 295.8085,58.90154 319.26279,58.90154 312.52905,67.85242 
	265.68579,67.85242 "/>
<polygon fill="#0033A0" points="325.79977,67.85436 358.021,25.08231 381.40271,25.08231 349.17661,67.85194 "/>
<polygon fill="#0033A0" points="419.57272,46.75904 414.55991,25.08377 396.28299,25.08377 364.06415,67.8534 379.53098,67.85098 
	395.71661,46.37177 400.68582,67.8534 419.15399,67.8534 451.37766,25.08377 435.90359,25.08377 "/>
<g>
	<path fill="#0033A0" d="M514.3891,44.80717h-28.77448l-9.08887,12.05634c-0.927,1.23685-2.40833,2.03561-4.07608,2.03561h-6.61996
		c-0.82535,0-1.48615-0.66563-1.48615-1.48859c0-0.3316,0.10892-0.639,0.30014-0.89073l15.40869-20.45294
		c0.9343-1.23927,2.40836-2.03803,4.08331-2.03803l6.62241,0.00727c0.81326,0,1.48132,0.65353,1.48132,1.4789
		c0,0.33644-0.11136,0.64142-0.29773,0.89315l-2.50763,3.3233h23.35992l4.12689-5.4751
		c0.72369-0.95609,1.1449-2.15179,1.1449-3.44674c0-3.16113-2.55841-5.72682-5.72443-5.72682h-37.56561
		c-6.43356,0-12.14832,3.08125-15.74271,7.84473l-19.40244,25.74891c-0.72131,0.95608-1.14972,2.15906-1.14972,3.44674
		c0,3.16113,2.56082,5.72924,5.7244,5.72924l37.57043,0.00243c6.43121,0,12.14835-3.0861,15.74274-7.85199l4.66666-6.19397h5.41702
		L514.3891,44.80717z"/>
	<path fill="#0033A0" d="M237.20296,56.86255c-0.93188,1.23686-2.41321,2.03804-4.07848,2.03804h-6.61998
		c-0.82294,0-1.48373-0.66563-1.48373-1.49101c0-0.3316,0.11133-0.639,0.30014-0.88589l15.40625-20.45535
		c0.92947-1.2417,2.4108-2.03319,4.08575-2.03319h6.61996c0.8157,0,1.48376,0.66078,1.48376,1.4789
		c0,0.33644-0.1162,0.64384-0.30014,0.89315L237.20296,56.86255z M273.01862,25.08667l-37.56323-0.00484
		c-6.43117,0-12.14589,3.0861-15.74754,7.84957l-19.40002,25.74407c-0.71648,0.96092-1.14731,2.16148-1.14731,3.45159
		c0,3.15628,2.56085,5.72682,5.7244,5.72682h37.5632c6.43361,0,12.15317-3.08125,15.74757-7.85199l19.40244-25.74407
		c0.71887-0.9585,1.14246-2.14938,1.14246-3.44432C278.74057,27.65237,276.18216,25.08667,273.01862,25.08667"/>
	<path fill="#0033A0" d="M181.21228,36.4072l-2.45436,3.26279c-0.9343,1.23443-2.42046,2.03318-4.08333,2.03318h-9.55116
		l5.77524-7.66803h9.12999c0.8157,0,1.4789,0.66078,1.4789,1.4789C181.50755,35.85049,181.40106,36.15789,181.21228,36.4072
		 M168.68878,53.02853l-2.88762,3.84128c-0.93915,1.23444-2.41805,2.03077-4.08574,2.03077h-9.55115l6.21332-8.24895
		l9.12517-0.00242c0.82053,0,1.48373,0.66805,1.48373,1.48617C168.9865,52.47182,168.87758,52.78164,168.68878,53.02853
		 M201.61438,25.08667l-47.34189-0.00484l-32.22607,42.76962l48.99506,0.00243c6.43602,0,12.15074-3.08125,15.74998-7.85199
		l4.54562-6.03422c0.57365-0.76487,0.9222-1.72095,0.9222-2.75933c0-1.51036-0.74309-2.85857-1.87343-3.68394
		c4.60857-1.05048,8.5999-3.713,11.35681-7.36306l4.44882-5.90351c0.72371-0.9585,1.15213-2.14938,1.15213-3.44432
		C207.34361,27.65237,204.77066,25.08667,201.61438,25.08667"/>
</g>
<g>
</g>
<g>
</g>
<g>
</g>
<g>
</g>
<g>
</g>
<g>
</g>
</svg>
