<?xml version="1.0" encoding="utf-8"?>
<!-- Generator: Adobe Illustrator 18.1.1, SVG Export Plug-In . SVG Version: 6.00 Build 0)  -->
<svg version="1.1" id="Layer_1" xmlns="http://www.w3.org/2000/svg" xmlns:xlink="http://www.w3.org/1999/xlink" x="0px" y="0px"
	 viewBox="0 0 509.51559 150.10181" enable-background="new 0 0 509.51559 150.10181" xml:space="preserve">
<g>
	<path fill="#005CB9" d="M157.12979,1.52086v147.97246h39.96538V39.0564h85.74174c9.51392,0,21.39609-1.12934,26.54318,2.12866
		c7.86441,4.98968,7.36475,24.87312,0,29.6027c-1.36209,0.56126-3.34698,0.50649-4.27786,1.51949
		c-34.66766,0.19849-70.17722-0.41068-104.33839,0.30116c6.61868,12.80617,13.826,25.03054,20.13669,38.13787h48.19936
		c16.5296,0,33.33981,1.30047,48.51419,0c6.24911-0.53387,12.80618-1.69745,17.70004-4.57901
		c6.73505-3.95615,12.27914-11.4304,14.94852-19.21951c3.86719-11.31405,4.35999-27.43982,3.34698-41.4917
		c-0.97879-13.89444-4.79803-26.66639-11.28668-34.17486c-4.83911-3.51126-8.93216-7.30315-15.24966-8.84318
		c-5.72888-1.40313-12.88831-1.82748-19.5275-1.82748H157.43781C157.07504,0.6516,157.10925,1.0965,157.12979,1.52086
		 M360.63898,0.91853v84.50974c0,9.555-1.15674,19.50014,0,28.36384c0.80081,6.29015,4.44211,14.55837,7.32367,18.3092
		c6.95407,9.06219,15.44818,14.96219,28.97986,17.08401c8.13132,1.29361,17.99435,0.308,27.75467,0.308h84.81775
		c-7.37845-12.95674-15.11963-25.56441-23.17566-37.82986c-28.83612-0.46544-58.59625,0.01368-87.2681-0.60233V0.00137h-38.13788
		C360.5842,0.04928,360.60477,0.48049,360.63898,0.91853"/>
	<path fill="#ED1C24" d="M360.93399,0h38.13785v111.05977c28.67184,0.62286,58.43195,0.13689,87.2681,0.60917
		c8.04916,12.26545,15.79037,24.86628,23.17566,37.82986h-84.81775c-9.76715,0-19.63019,0.97878-27.76151-0.308
		c-13.52487-2.12866-22.01895-8.02182-28.97986-17.08401c-2.88156-3.75766-6.52286-12.02588-7.31683-18.31603
		c-1.16357-8.8637,0-18.80884,0-28.36384V0.91718C360.60544,0.47913,360.5849,0.04792,360.93399,0"/>
	<path fill="#ED1C24" d="M114.12613,150.10181H0c7.53586-13.00465,15.50976-25.57127,23.18935-38.43903
		c26.37208-0.38329,54.28417,0.76659,79.63641-0.60232c2.61462-2.3203,5.81103-4.44212,7.01566-7.62484
		c2.32031-6.13272,0.61601-17.44677,0.61601-25.3317c0-25.97509-0.2464-54.10622,0.30801-77.49406h38.12417v92.14142
		c0,17.72056,0.08215,29.00723-7.02934,39.05504c-3.2717,4.64061-6.55708,8.75418-11.28668,11.58099
		C125.97405,146.14565,120.84747,148.09634,114.12613,150.10181"/>
	<path fill="#ED1C24" d="M157.43643,0.60985h150.10794c6.63922,0,13.79865,0.42436,19.52753,1.8275
		c6.31754,1.54003,10.41058,5.33192,15.24969,8.84317c6.48862,7.50848,10.30789,20.28043,11.28665,34.17487
		c1.013,14.05187,0.52017,30.17765-3.34698,41.4917c-2.66937,7.78911-8.21347,15.26336-14.94849,19.21951
		c-4.88702,2.88156-11.45096,4.04514-17.70004,4.57901c-15.17438,1.30047-31.98462,0-48.51422,0h-48.19254
		c-6.3175-13.10733-13.52483-25.3317-20.13666-38.13787c34.15431-0.71183,69.66391-0.10267,104.33157-0.30116
		c0.93771-1.013,2.91577-0.95824,4.27783-1.51949c7.37158-4.72958,7.86438-24.61302,0-29.6027
		c-5.14709-3.258-17.0224-2.12866-26.54318-2.12866h-85.74176v110.43692h-39.96536V1.52018
		C157.10789,1.09582,157.07365,0.65777,157.43643,0.60985"/>
</g>
<g>
</g>
<g>
</g>
<g>
</g>
<g>
</g>
<g>
</g>
<g>
</g>
</svg>
