<?xml version="1.0" encoding="utf-8"?>
<!-- Generator: Adobe Illustrator 18.1.1, SVG Export Plug-In . SVG Version: 6.00 Build 0)  -->
<svg version="1.1" id="Layer_1" xmlns="http://www.w3.org/2000/svg" xmlns:xlink="http://www.w3.org/1999/xlink" x="0px" y="0px"
	 viewBox="0 0 420.1994 347.8764" enable-background="new 0 0 420.1994 347.8764" xml:space="preserve">
<g>
	<g>
		<defs>
			<rect id="SVGID_1_" x="-0.00002" y="0" width="420.1994" height="347.8764"/>
		</defs>
		<clipPath id="SVGID_2_">
			<use xlink:href="#SVGID_1_"  overflow="visible"/>
		</clipPath>
		<path clip-path="url(#SVGID_2_)" fill="#0066B3" d="M370.44687,174.72308c0,95.40808-78.52417,173.9382-173.93823,173.9382
			S22.57045,270.13116,22.57045,174.72308S101.09458,0.78488,196.50864,0.78488S370.44687,79.31503,370.44687,174.72308"/>
	</g>
	<g>
		<defs>
			<rect id="SVGID_3_" x="-0.00002" y="0" width="420.1994" height="347.8764"/>
		</defs>
		<clipPath id="SVGID_4_">
			<use xlink:href="#SVGID_3_"  overflow="visible"/>
		</clipPath>
		<path clip-path="url(#SVGID_4_)" fill="#FFFFFF" d="M198.90703,16.58797c0,0.77291-0.64111,1.41399-1.41399,1.41399
			c-0.7789,0-1.42-0.64108-1.42-1.41399c0-0.77289,0.6411-1.41396,1.42-1.41396
			C198.26591,15.17401,198.90703,15.81509,198.90703,16.58797"/>
		<path clip-path="url(#SVGID_4_)" fill="#FFFFFF" d="M208.71626,38.05838c0,0.95866-0.78488,1.74352-1.74352,1.74352
			c-0.95265,0-1.74951-0.78486-1.74951-1.74352c0-0.95263,0.79686-1.7435,1.74951-1.7435
			C207.93138,36.31489,208.71626,37.10576,208.71626,38.05838"/>
		<path clip-path="url(#SVGID_4_)" fill="#FFFFFF" d="M234.21654,73.15038c0,0.95866-0.78488,1.74352-1.74352,1.74352
			c-0.95265,0-1.74353-0.78486-1.74353-1.74352c0-0.95262,0.79088-1.7435,1.74353-1.7435
			C233.43166,71.40688,234.21654,72.19776,234.21654,73.15038"/>
		<path clip-path="url(#SVGID_4_)" fill="#FFFFFF" d="M193.23911,50.15454c0,0.77291-0.6411,1.41399-1.41399,1.41399
			c-0.7789,0-1.41998-0.64108-1.41998-1.41399c0-0.77288,0.64108-1.41396,1.41998-1.41396
			C192.59801,48.74057,193.23911,49.38165,193.23911,50.15454"/>
		<path clip-path="url(#SVGID_4_)" fill="#FFFFFF" d="M208.49696,58.22026c0,0.77291-0.6411,1.41399-1.41399,1.41399
			c-0.7789,0-1.42-0.64108-1.42-1.41399c0-0.77288,0.6411-1.41396,1.42-1.41396
			C207.85587,56.8063,208.49696,57.44738,208.49696,58.22026"/>
		<path clip-path="url(#SVGID_4_)" fill="#FFFFFF" d="M188.66223,35.6606c0,0.95866-0.78488,1.74352-1.74352,1.74352
			c-0.95265,0-1.74353-0.78486-1.74353-1.74352c0-0.95262,0.79088-1.7435,1.74353-1.7435
			C187.87735,33.9171,188.66223,34.70798,188.66223,35.6606"/>
		<path clip-path="url(#SVGID_4_)" fill="#FFFFFF" d="M165.55794,49.71898c0,0.77291-0.64108,1.41399-1.41399,1.41399
			c-0.7789,0-1.41998-0.64108-1.41998-1.41399c0-0.77288,0.64108-1.41396,1.41998-1.41396
			C164.91685,48.30502,165.55794,48.94609,165.55794,49.71898"/>
		<path clip-path="url(#SVGID_4_)" fill="#FFFFFF" d="M169.69923,52.55294c0,0.77291-0.64108,1.41399-1.41399,1.41399
			c-0.77888,0-1.41998-0.64108-1.41998-1.41399c0-0.77289,0.6411-1.41396,1.41998-1.41396
			C169.05815,51.13898,169.69923,51.78005,169.69923,52.55294"/>
		<path clip-path="url(#SVGID_4_)" fill="#FFFFFF" d="M173.83995,55.3869c0,0.77291-0.6411,1.41399-1.41399,1.41399
			c-0.7849,0-1.41998-0.64108-1.41998-1.41399c0-0.77288,0.63509-1.41396,1.41998-1.41396
			C173.19885,53.97293,173.83995,54.61401,173.83995,55.3869"/>
		<path clip-path="url(#SVGID_4_)" fill="#FFFFFF" d="M167.51955,60.83554c0,0.77291-0.6411,1.41399-1.41399,1.41399
			c-0.7789,0-1.41998-0.64108-1.41998-1.41399c0-0.77288,0.64108-1.41396,1.41998-1.41396
			C166.87845,59.42158,167.51955,60.06266,167.51955,60.83554"/>
		<path clip-path="url(#SVGID_4_)" fill="#FFFFFF" d="M134.60603,83.93922c0,0.77291-0.6411,1.41399-1.41399,1.41399
			c-0.7789,0-1.41998-0.64108-1.41998-1.41399c0-0.77289,0.64108-1.41396,1.41998-1.41396
			C133.96494,82.52525,134.60603,83.16633,134.60603,83.93922"/>
		<path clip-path="url(#SVGID_4_)" fill="#FFFFFF" d="M140.70955,91.35125c0,0.77291-0.6411,1.41399-1.41399,1.41399
			c-0.7789,0-1.41998-0.64108-1.41998-1.41399c0-0.77289,0.64108-1.41396,1.41998-1.41396
			C140.06845,89.93729,140.70955,90.57836,140.70955,91.35125"/>
		<path clip-path="url(#SVGID_4_)" fill="#FFFFFF" d="M135.91397,211.01518c0,0.77292-0.64108,1.41399-1.41399,1.41399
			c-0.77888,0-1.41998-0.64107-1.41998-1.41399c0-0.77289,0.6411-1.41397,1.41998-1.41397
			C135.27289,209.60121,135.91397,210.24229,135.91397,211.01518"/>
		<path clip-path="url(#SVGID_4_)" fill="#FFFFFF" d="M136.78572,244.03714c0,0.95265-0.78488,1.74352-1.74352,1.74352
			c-0.95265,0-1.74352-0.79086-1.74352-1.74352c0-0.95264,0.79086-1.7435,1.74352-1.7435
			C136.00084,242.29364,136.78572,243.0845,136.78572,244.03714"/>
		<path clip-path="url(#SVGID_4_)" fill="#FFFFFF" d="M118.04143,260.93008c0,0.77289-0.64109,1.41397-1.41399,1.41397
			c-0.78488,0-1.41998-0.64108-1.41998-1.41397c0-0.7789,0.6351-1.414,1.41998-1.414
			C117.40034,259.51608,118.04143,260.15118,118.04143,260.93008"/>
		<path clip-path="url(#SVGID_4_)" fill="#FFFFFF" d="M95.59022,267.79568c0,0.95865-0.78488,1.74353-1.74352,1.74353
			c-0.95264,0-1.74352-0.78488-1.74352-1.74353c0-0.95862,0.79088-1.7435,1.74352-1.7435
			C94.80534,266.05219,95.59022,266.83707,95.59022,267.79568"/>
		<path clip-path="url(#SVGID_4_)" fill="#FFFFFF" d="M91.01274,252.53783c0,0.95265-0.78488,1.74352-1.74352,1.74352
			c-0.95265,0-1.74352-0.79086-1.74352-1.74352c0-0.95264,0.79087-1.74352,1.74352-1.74352
			C90.22786,250.79431,91.01274,251.58519,91.01274,252.53783"/>
		<path clip-path="url(#SVGID_4_)" fill="#FFFFFF" d="M88.39687,262.23682c0,0.77289-0.64108,1.41397-1.41399,1.41397
			c-0.77888,0-1.41998-0.64108-1.41998-1.41397c0-0.77292,0.64109-1.414,1.41998-1.414
			C87.75578,260.82281,88.39687,261.4639,88.39687,262.23682"/>
		<path clip-path="url(#SVGID_4_)" fill="#FFFFFF" d="M71.61357,254.1729c0,0.7789-0.64108,1.41399-1.41399,1.41399
			c-0.77888,0-1.41998-0.63509-1.41998-1.41399c0-0.77888,0.64109-1.41397,1.41998-1.41397
			C70.97249,252.75893,71.61357,253.39401,71.61357,254.1729"/>
		<path clip-path="url(#SVGID_4_)" fill="#FFFFFF" d="M130.24666,281.41788c0,0.77292-0.6411,1.414-1.41399,1.414
			c-0.7789,0-1.41999-0.64108-1.41999-1.414c0-0.77289,0.64109-1.41397,1.41999-1.41397
			C129.60556,280.00391,130.24666,280.64499,130.24666,281.41788"/>
		<path clip-path="url(#SVGID_4_)" fill="#FFFFFF" d="M147.90228,268.44876c0,0.95865-0.78488,1.74353-1.74352,1.74353
			c-0.95264,0-1.74352-0.78488-1.74352-1.74353c0-0.95862,0.79088-1.7435,1.74352-1.7435
			C147.1174,266.70526,147.90228,267.49014,147.90228,268.44876"/>
		<path clip-path="url(#SVGID_4_)" fill="#FFFFFF" d="M149.8645,285.1236c0,0.77292-0.64108,1.414-1.41399,1.414
			c-0.7789,0-1.41998-0.64108-1.41998-1.414c0-0.77289,0.64108-1.41397,1.41998-1.41397
			C149.22342,283.70963,149.8645,284.35071,149.8645,285.1236"/>
		<path clip-path="url(#SVGID_4_)" fill="#FFFFFF" d="M222.44749,269.21268c0,0.77289-0.6411,1.41397-1.41399,1.41397
			c-0.7789,0-1.42-0.64108-1.42-1.41397c0-0.7789,0.6411-1.414,1.42-1.414
			C221.8064,267.79868,222.44749,268.43378,222.44749,269.21268"/>
		<path clip-path="url(#SVGID_4_)" fill="#FFFFFF" d="M188.66223,281.1998c0,0.7789-0.6411,1.41397-1.41399,1.41397
			c-0.7789,0-1.41998-0.63507-1.41998-1.41397c0-0.77289,0.64108-1.41397,1.41998-1.41397
			C188.02113,279.78583,188.66223,280.42691,188.66223,281.1998"/>
		<path clip-path="url(#SVGID_4_)" fill="#FFFFFF" d="M279.55392,298.42105c0,0.77292-0.64108,1.414-1.41397,1.414
			c-0.7789,0-1.42001-0.64108-1.42001-1.414c0-0.77289,0.64111-1.41397,1.42001-1.41397
			C278.91284,297.00708,279.55392,297.64816,279.55392,298.42105"/>
		<path clip-path="url(#SVGID_4_)" fill="#FFFFFF" d="M286.96478,231.39514c0,0.95265-0.78488,1.74353-1.74353,1.74353
			c-0.95264,0-1.7435-0.79088-1.7435-1.74353c0-0.95262,0.79086-1.7435,1.7435-1.7435
			C286.1799,229.65164,286.96478,230.44252,286.96478,231.39514"/>
		<path clip-path="url(#SVGID_4_)" fill="#FFFFFF" d="M273.01547,240.87665c0,0.7729-0.64111,1.41998-1.414,1.41998
			c-0.7789,0-1.41998-0.64708-1.41998-1.41998s0.64108-1.41399,1.41998-1.41399
			C272.37436,239.46266,273.01547,240.10374,273.01547,240.87665"/>
		<path clip-path="url(#SVGID_4_)" fill="#FFFFFF" d="M286.74789,243.60097c0,0.95863-0.78488,1.74352-1.7435,1.74352
			c-0.95267,0-1.74353-0.78488-1.74353-1.74352c0-0.95264,0.79086-1.74352,1.74353-1.74352
			C285.96301,241.85745,286.74789,242.64833,286.74789,243.60097"/>
		<path clip-path="url(#SVGID_4_)" fill="#FFFFFF" d="M273.01547,260.49329c0,0.77292-0.64111,1.414-1.414,1.414
			c-0.7789,0-1.41998-0.64108-1.41998-1.414c0-0.77289,0.64108-1.41397,1.41998-1.41397
			C272.37436,259.07932,273.01547,259.7204,273.01547,260.49329"/>
		<path clip-path="url(#SVGID_4_)" fill="#FFFFFF" d="M308.54422,221.91306c0,0.7789-0.64108,1.41399-1.41397,1.41399
			c-0.7789,0-1.42001-0.63509-1.42001-1.41399c0-0.77289,0.64111-1.41397,1.42001-1.41397
			C307.90314,220.49908,308.54422,221.14017,308.54422,221.91306"/>
		<path clip-path="url(#SVGID_4_)" fill="#FFFFFF" d="M312.03186,230.52339c0,0.95264-0.78488,1.74352-1.74353,1.74352
			c-0.95264,0-1.74948-0.79088-1.74948-1.74352s0.79684-1.74352,1.74948-1.74352
			C311.24698,228.77988,312.03186,229.57076,312.03186,230.52339"/>
		<path clip-path="url(#SVGID_4_)" fill="#FFFFFF" d="M336.44467,240.76759c0,0.95265-0.78488,1.74352-1.7435,1.74352
			c-0.95264,0-1.74951-0.79086-1.74951-1.74352c0-0.95863,0.79688-1.7435,1.74951-1.7435
			C335.65979,239.02409,336.44467,239.80896,336.44467,240.76759"/>
		<path clip-path="url(#SVGID_4_)" fill="#FFFFFF" d="M311.59567,258.96786c0,0.7789-0.64108,1.414-1.41397,1.414
			c-0.7789,0-1.42001-0.6351-1.42001-1.414c0-0.77289,0.64111-1.41397,1.42001-1.41397
			C310.95459,257.55389,311.59567,258.19498,311.59567,258.96786"/>
		<path clip-path="url(#SVGID_4_)" fill="#FFFFFF" d="M327.28973,244.14677c0,0.7789-0.64111,1.41998-1.414,1.41998
			c-0.7789,0-1.41998-0.64108-1.41998-1.41998c0-0.77289,0.64108-1.41397,1.41998-1.41397
			C326.64862,242.7328,327.28973,243.37389,327.28973,244.14677"/>
		<path clip-path="url(#SVGID_4_)" fill="#FFFFFF" d="M324.45578,267.03357c0,0.77292-0.64111,1.414-1.414,1.414
			c-0.7789,0-1.41998-0.64108-1.41998-1.414c0-0.77887,0.64108-1.41397,1.41998-1.41397
			C323.81467,265.6196,324.45578,266.2547,324.45578,267.03357"/>
		<path clip-path="url(#SVGID_4_)" fill="#FFFFFF" d="M229.43654,34.01833c0.23964-0.88673,0.95262-1.58175,1.85733-1.77945
			l0.4973-3.7267l0.73695,3.76265c0.86876,0.25164,1.54579,0.96462,1.74352,1.85734l3.78062,0.53923l-3.81058,0.67104
			c-0.24567,0.86278-0.93466,1.53382-1.80942,1.74951l-0.6411,3.83456l-0.64706-3.8645
			c-0.8508-0.25164-1.50987-0.93468-1.72556-1.80345l-3.64281-0.58716L229.43654,34.01833z"/>
		<path clip-path="url(#SVGID_4_)" fill="#FFFFFF" d="M131.71335,301.39703c0.23965-0.88675,0.95863-1.58176,1.85736-1.77948
			l0.49728-3.72668l0.73695,3.76263c0.86876,0.25165,1.54579,0.96463,1.73752,1.85736l3.78661,0.53922l-3.81656,0.67105
			c-0.23965,0.86276-0.92868,1.53381-1.80342,1.74353l-0.6411,3.84052l-0.64708-3.8645
			c-0.85078-0.25162-1.50984-0.93466-1.72554-1.80341l-3.64281-0.58719L131.71335,301.39703z"/>
		<path clip-path="url(#SVGID_4_)" fill="#FFFFFF" d="M311.43274,266.92392c0.23962-0.88672,0.95261-1.57574,1.85733-1.77945
			l0.49728-3.72668l0.73099,3.76263c0.86874,0.25165,1.55176,0.96463,1.7435,1.85736l3.78061,0.53922l-3.8046,0.67105
			c-0.24564,0.86276-0.93463,1.53381-1.80939,1.74353l-0.64111,3.84052l-0.64706-3.8645
			c-0.8508-0.25165-1.50986-0.94064-1.72556-1.80344l-3.64279-0.58716L311.43274,266.92392z"/>
		<path clip-path="url(#SVGID_4_)" fill="#FFFFFF" d="M325.66064,228.4809c0.23965-0.88673,0.95264-1.58174,1.85733-1.77946
			l0.49731-3.72668l0.73694,3.76263c0.86279,0.25165,1.54581,0.96463,1.73755,1.85736l3.78058,0.53923l-3.80457,0.67104
			c-0.24564,0.86278-0.93466,1.53383-1.80942,1.74951l-0.64108,3.83455l-0.64706-3.8645
			c-0.8508-0.25165-1.50989-0.93468-1.72556-1.80344l-3.64279-0.58716L325.66064,228.4809z"/>
		<path clip-path="url(#SVGID_4_)" fill="#FFFFFF" d="M149.15031,86.4814c0.23965-0.88673,0.95863-1.58174,1.85736-1.77944
			l0.49728-3.7267l0.73695,3.76265c0.86876,0.25164,1.54579,0.96462,1.74352,1.85734l3.78061,0.53923l-3.81656,0.67104
			c-0.23965,0.86278-0.92868,1.53382-1.80342,1.74352l-0.6411,3.84054l-0.64708-3.86449
			c-0.85078-0.25164-1.50984-0.94067-1.71954-1.80344l-3.6488-0.58717L149.15031,86.4814z"/>
	</g>
	<g>
		<defs>
			<rect id="SVGID_5_" x="-0.00002" y="0" width="420.1994" height="347.8764"/>
		</defs>
		<clipPath id="SVGID_6_">
			<use xlink:href="#SVGID_5_"  overflow="visible"/>
		</clipPath>
		<path clip-path="url(#SVGID_6_)" fill="#FFFFFF" d="M137.62514,167.4129c12.85167,22.45003,27.83034,38.87862,39.89116,54.48637
			c10.70676,13.85226,31.56902,20.79637,24.2235,27.36902c-8.2802,7.41142-28.33963-25.28398-28.33963-25.28398
			c-13.31903-16.0751-26.07486-33.12082-39.08232-55.41505L137.62514,167.4129z"/>
		<path clip-path="url(#SVGID_6_)" fill="#ED1C24" d="M1.76988,226.32277c62.08355-40.77789,170.44516-67.10439,259.68805-102.53191
			C329.26331,96.8712,389.55539,63.07336,421.96924,16.54363C339.83224,183.86127,111.07216,164.05948,6.23352,227.88655
			L1.76988,226.32277z"/>
	</g>
	<path fill="#FFFFFF" d="M167.28168,182.81995l-8.99919-22.79753l-6.5966,22.79753H167.28168z M146.11383,143.36015h31.08971
		l22.29424,56.14003l7.42943,7.45338h-40.47833l7.43541-7.45338l-2.64824-6.85425h-22.33618l-2.29472,7.83684l5.3264,6.47079
		h-21.1199l7.42941-7.45338l14.32559-49.64526L146.11383,143.36015z"/>
	<path fill="#FFFFFF" d="M312.91321,182.81995l-8.99319-22.79753l-6.6026,22.79753H312.91321z M290.56503,143.36015h32.276
		l22.28827,56.14003l7.43539,7.45338h-40.48431l7.43539-7.45338l-2.64221-6.85425h-22.34219l-2.30072,7.83684l5.33243,6.47079
		h-21.11993l7.42941-7.45338l14.32559-49.64526L290.56503,143.36015z"/>
	<polygon fill="#FFFFFF" points="103.91956,182.96794 103.91956,149.85313 97.46674,143.36438 118.98209,143.36438 
		112.52329,149.85313 112.52329,199.4984 119.95271,206.95778 91.69697,206.95778 67.34766,165.77245 67.34766,199.4984 
		73.60874,206.95778 51.11678,206.95778 58.5462,199.4984 58.5462,149.85313 52.09938,143.36438 80.25926,143.36438 	"/>
	<g>
		<defs>
			<rect id="SVGID_7_" x="-0.00002" y="0" width="420.1994" height="347.8764"/>
		</defs>
		<clipPath id="SVGID_8_">
			<use xlink:href="#SVGID_7_"  overflow="visible"/>
		</clipPath>
		<path clip-path="url(#SVGID_8_)" fill="#FFFFFF" d="M266.79449,159.66953l-0.65906-19.80177l-6.66852,4.60146
			c-9.38861-3.28333-20.31705-3.15752-27.98611,0.46733c-7.13583,3.37918-14.83487,10.51501-13.90019,20.64058
			c0.94064,10.13756,8.79546,14.06197,15.87138,17.2674c9.10703,4.12813,19.0289,5.53012,18.8791,10.98236
			c-0.09586,3.46906-5.85367,5.95552-10.32927,5.8177c-4.0862-0.13181-17.37526-1.12639-24.32536-9.38263l1.31813,20.82634
			l7.41743-5.44026c9.01715,3.19345,19.93958,4.52956,30.0472,1.22826c10.0477-3.27733,20.61063-11.67737,14.75098-26.37442
			c-2.5224-6.327-9.46652-10.22144-13.61261-11.91702c-3.7926-1.5518-15.3681-6.1053-18.6035-7.78891
			c-3.77461-1.96519-3.34921-8.2083,5.72784-9.4785C252.95421,150.17308,264.34998,156.76367,266.79449,159.66953"/>
		<path clip-path="url(#SVGID_8_)" fill="#ED1C24" d="M49.85018,323.95609
			c124.68836-127.2587,310.54358-186.05293,372.11786-307.41003c-37.08118,117.9839-235.67424,183.05721-372.4534,313.39551
			L49.85018,323.95609z"/>
	</g>
	<g>
		<defs>
			<rect id="SVGID_9_" x="-0.00002" y="0" width="420.1994" height="347.8764"/>
		</defs>
		<clipPath id="SVGID_10_">
			<use xlink:href="#SVGID_9_"  overflow="visible"/>
		</clipPath>
		<path clip-path="url(#SVGID_10_)" fill="#FFFFFF" d="M134.31305,168.56506c-1.46191-2.49844-2.92383-5.06877-4.39175-7.71101
			c-33.24063-59.80679-28.44746-120.83585,31.71283-94.24573c51.05925,22.57585,99.82977,85.88165,119.44583,130.8416
			c9.08304,20.83232,33.45633,102.59784-45.01387,69.46503l-0.15576-0.47333
			c74.10841,30.51453,61.29866-46.81729,21.62917-106.10283c-22.45001-33.54622-51.7243-61.49638-70.18401-74.97718
			c-61.47243-44.90604-98.96101-17.44117-55.79851,70.61539c1.95322,3.98431,3.97833,7.78891,6.06335,11.43172L134.31305,168.56506z
			"/>
	</g>
</g>
<g>
</g>
<g>
</g>
<g>
</g>
<g>
</g>
<g>
</g>
<g>
</g>
</svg>
