<?xml version="1.0" encoding="UTF-8"?>
<svg version="1.1" xmlns="http://www.w3.org/2000/svg" width="900" height="450">
<path d="M0 0 C297 0 594 0 900 0 C900 148.5 900 297 900 450 C603 450 306 450 0 450 C0 301.5 0 153 0 0 Z " fill="#FEFEFE" transform="translate(0,0)"/>
<path d="M0 0 C1.64026909 -0.00639748 1.64026909 -0.00639748 3.31367493 -0.01292419 C4.52402908 -0.01247101 5.73438324 -0.01201782 6.98141479 -0.0115509 C8.88134438 -0.01658882 8.88134438 -0.01658882 10.81965637 -0.02172852 C14.30549798 -0.0305917 17.79131506 -0.03290772 21.27716684 -0.0335443 C24.18687923 -0.03449236 27.09658586 -0.03816985 30.00629604 -0.0417164 C36.87544664 -0.04987133 43.74458413 -0.05229986 50.61373901 -0.05158997 C57.69423662 -0.05099031 64.77465776 -0.06151736 71.85513604 -0.07733363 C77.93419983 -0.09042801 84.01323872 -0.095773 90.09231651 -0.09513456 C93.72269553 -0.09487993 97.35300677 -0.09771076 100.98337173 -0.10831261 C105.03876165 -0.11983066 109.09398175 -0.11523515 113.14938354 -0.10920715 C114.34759232 -0.11482666 115.54580109 -0.12044617 116.78031921 -0.12623596 C126.21923121 -0.09058189 134.24116773 1.29691228 141.95358276 7.13371277 C146.77565662 12.86181302 149.32448069 18.08222284 149.23873901 25.59074402 C148.51477044 32.04695691 145.61694243 38.59989087 140.95358276 43.13371277 C134.87515393 47.51018153 129.60651414 50.48966307 121.95358276 50.13371277 C127.72824198 57.02927638 134.05862874 63.32448746 140.45358276 69.63371277 C152.33436114 81.35522122 152.33436114 81.35522122 157.63131714 87.59269714 C158.68527192 88.82101372 159.80912169 89.9892517 160.95358276 91.13371277 C160.57858276 93.25871277 160.57858276 93.25871277 159.95358276 95.13371277 C152.55232268 95.28631012 145.15147077 95.39111618 137.74899292 95.46330261 C135.23288818 95.49340653 132.71688779 95.53429956 130.20114136 95.58634949 C126.57669278 95.65944038 122.95363591 95.69323508 119.32858276 95.71965027 C118.21056274 95.75061798 117.09254272 95.78158569 115.94064331 95.81349182 C108.47895345 95.81668046 104.28695807 94.39637572 98.95358276 89.13371277 C97.23118171 87.39555805 95.56385223 85.60123264 93.95358276 83.75871277 C86.75077573 75.68538622 79.01120079 68.13797321 71.31881714 60.5365448 C70.80624863 60.02813553 70.29368011 59.51972626 69.76557922 58.99591064 C68.35712895 57.59904238 66.94561655 56.20526357 65.53390503 54.81169128 C64.68239868 53.92795837 63.83089233 53.04422546 62.95358276 52.13371277 C62.48137299 51.65110992 62.00916321 51.16850708 61.52264404 50.67127991 C59.23836187 48.18076205 58.01456922 46.5074378 57.46530151 43.14152527 C57.55231323 41.71453308 57.55231323 41.71453308 57.64108276 40.25871277 C57.68619995 39.29191589 57.73131714 38.32511902 57.77780151 37.32902527 C57.83580933 36.60457214 57.89381714 35.88011902 57.95358276 35.13371277 C58.70454224 35.11913025 59.45550171 35.10454773 60.22921753 35.08952332 C63.65866938 35.01467679 67.08718672 34.91813623 70.51608276 34.82121277 C72.28822144 34.78737488 72.28822144 34.78737488 74.09616089 34.75285339 C80.38379931 34.55911664 85.45507193 34.32868678 90.95358276 31.13371277 C92.52529273 27.99029284 92.1853406 24.57599826 91.95358276 21.13371277 C91.45858276 19.64871277 91.45858276 19.64871277 90.95358276 18.13371277 C86.44794385 17.03181152 81.98450381 16.91570044 77.37155151 16.81730652 C76.55737259 16.79652542 75.74319366 16.77574432 74.90434265 16.7543335 C72.31667097 16.68921814 69.72890223 16.63013069 67.14108276 16.57121277 C65.38130731 16.52799135 63.62154148 16.48437592 61.86178589 16.44035339 C57.55914968 16.33357596 53.25641634 16.23220259 48.95358276 16.13371277 C48.9602446 17.09393341 48.96690643 18.05415405 48.97377014 19.04347229 C49.03450087 28.07852555 49.0795166 37.11353758 49.10901928 46.1487484 C49.12469665 50.79421346 49.14597249 55.43951418 49.17990112 60.08488464 C49.21242103 64.56525418 49.23042016 69.04546533 49.23821449 73.52594376 C49.2437713 75.23804342 49.25462197 76.9501341 49.27077293 78.6621666 C49.29244975 81.05440472 49.29555386 83.4459826 49.29415894 85.83830261 C49.30494476 86.55111893 49.31573059 87.26393524 49.32684326 87.99835205 C49.31434631 89.96998596 49.31434631 89.96998596 48.95358276 93.13371277 C45.70690039 95.29816769 44.80492318 95.38568671 41.05490112 95.39250183 C40.0605455 95.39880615 39.06618988 95.40511047 38.04170227 95.41160583 C36.96977127 95.40755737 35.89784027 95.40350891 34.79342651 95.39933777 C33.69261246 95.40125122 32.5917984 95.40316467 31.45762634 95.40513611 C29.1300229 95.40649756 26.80241186 95.4028039 24.474823 95.39445496 C20.9018153 95.38374494 17.32930925 95.39435707 13.75631714 95.40715027 C11.49785248 95.40582887 9.23938814 95.40326688 6.98092651 95.39933777 C5.90697128 95.40338623 4.83301605 95.40743469 3.72651672 95.41160583 C2.73531326 95.40530151 1.7441098 95.39899719 0.72286987 95.39250183 C-0.15188492 95.39091064 -1.02663971 95.38931946 -1.92790222 95.38768005 C-4.04641724 95.13371277 -4.04641724 95.13371277 -6.04641724 93.13371277 C-6.23995088 90.21670936 -6.30859292 87.39498347 -6.28933716 84.47721863 C-6.2912355 83.58120438 -6.29313385 82.68519012 -6.29508972 81.76202393 C-6.29880421 78.79078003 -6.2880845 75.81977881 -6.27688599 72.84855652 C-6.27569455 70.79114816 -6.27524095 68.73373925 -6.27549744 66.67633057 C-6.27393145 62.36122745 -6.26563243 58.04620716 -6.25222778 53.73112488 C-6.23522714 48.18677765 -6.23141367 42.64252145 -6.23217297 37.09815121 C-6.23190168 32.84924442 -6.2264273 28.60035772 -6.21917152 24.3514576 C-6.21597892 22.30641901 -6.21401608 20.26137814 -6.21327782 18.2163372 C-6.2111211 15.36445573 -6.20239174 12.51267284 -6.19168091 9.66081238 C-6.19213409 8.8072818 -6.19258728 7.95375122 -6.1930542 7.07435608 C-6.1540605 0.01078763 -6.1540605 0.01078763 0 0 Z " fill="#FEA905" transform="translate(120.04641723632813,166.8662872314453)"/>
<path d="M0 0 C1.07289276 -0.0021904 2.14578552 -0.0043808 3.25119019 -0.00663757 C6.75811738 -0.00892862 10.26418252 0.01718393 13.77099609 0.04418945 C16.21910333 0.04911753 18.66721435 0.05241369 21.11532593 0.05415344 C26.22414342 0.06176611 31.33267801 0.08225341 36.44140625 0.11328125 C43.00448911 0.15306433 49.56738921 0.17092652 56.13057899 0.18059063 C62.38574294 0.19053215 68.6408619 0.21042644 74.89599609 0.23168945 C76.09467945 0.2350852 77.29336281 0.23848095 78.5283699 0.2419796 C81.89657287 0.25349145 85.26465681 0.27199712 88.6328125 0.29296875 C89.64051697 0.29565765 90.64822144 0.29834656 91.6864624 0.30111694 C93.05301468 0.3118499 93.05301468 0.3118499 94.44717407 0.32279968 C95.2431431 0.32707316 96.03911213 0.33134665 96.85920143 0.33574963 C98.66943359 0.4699707 98.66943359 0.4699707 99.66943359 1.4699707 C99.76852662 3.80157125 99.79913864 6.13627012 99.79443359 8.4699707 C99.79701172 9.7487207 99.79958984 11.0274707 99.80224609 12.3449707 C99.66943359 15.4699707 99.66943359 15.4699707 98.66943359 16.4699707 C96.39569161 16.57834568 94.11857992 16.61628799 91.84228516 16.62768555 C90.77146698 16.63530663 90.77146698 16.63530663 89.67901611 16.64308167 C88.12336721 16.65380834 86.56770266 16.66241945 85.01203156 16.6692009 C82.54893357 16.68096132 80.0860132 16.70040804 77.62298584 16.72232056 C70.61802088 16.78402219 63.61307162 16.83794157 56.60791016 16.87133789 C52.3272227 16.89229817 48.04685463 16.92761732 43.76634979 16.97209549 C42.13494379 16.98625085 40.50348123 16.99497689 38.87201691 16.99814987 C36.58572575 17.00306545 34.30027932 17.02624045 32.01416016 17.0534668 C30.71367737 17.06155365 29.41319458 17.0696405 28.07330322 17.07797241 C24.42422397 17.49820967 22.55105004 18.229333 19.66943359 20.4699707 C16.91982582 25.38558379 16.2310621 29.73571639 16.30615234 35.2746582 C16.30565384 35.99807404 16.30515533 36.72148987 16.30464172 37.46682739 C16.306968 38.98792281 16.31661039 40.50902314 16.33325195 42.0300293 C16.35680073 44.331983 16.35380706 46.63277102 16.34716797 48.93481445 C16.04361668 63.01486122 16.04361668 63.01486122 21.66943359 75.4699707 C25.69883297 77.52306943 29.23558984 77.76953214 33.72021484 77.8840332 C34.92589111 77.91964355 36.13156738 77.95525391 37.3737793 77.99194336 C38.89447021 78.02594238 40.41516113 78.05994141 41.98193359 78.0949707 C46.82880859 78.2187207 51.67568359 78.3424707 56.66943359 78.4699707 C56.66943359 63.6199707 56.66943359 48.7699707 56.66943359 33.4699707 C58.96581009 32.32178245 60.2594109 32.34327167 62.81201172 32.34057617 C63.66629761 32.33742401 64.5205835 32.33427185 65.40075684 32.33102417 C66.32473267 32.3330484 67.2487085 32.33507263 68.20068359 32.3371582 C69.14754028 32.33620148 70.09439697 32.33524475 71.06994629 32.33425903 C73.07397528 32.33357784 75.07800648 32.3354279 77.08203125 32.33959961 C80.1567885 32.3449487 83.23139966 32.33965256 86.30615234 32.33325195 C88.25016308 32.33391275 90.19417373 32.33519393 92.13818359 32.3371582 C93.52414734 32.33412186 93.52414734 32.33412186 94.93811035 32.33102417 C95.79239624 32.33417633 96.64668213 32.33732849 97.52685547 32.34057617 C98.28027222 32.34137177 99.03368896 32.34216736 99.80993652 32.34298706 C101.66943359 32.4699707 101.66943359 32.4699707 103.66943359 33.4699707 C103.71572414 41.2584342 103.75128601 49.04686562 103.77305794 56.83543205 C103.78350609 60.45177943 103.79768391 64.06803287 103.8203125 67.68432617 C103.84200439 71.17265881 103.85399445 74.66090094 103.85918808 78.14929581 C103.86469528 80.13137041 103.88031394 82.11340849 103.89602661 84.09542847 C103.89617767 85.29652252 103.89632874 86.49761658 103.89648438 87.73510742 C103.9009256 88.79655975 103.90536682 89.85801208 103.90994263 90.95162964 C103.66943359 93.4699707 103.66943359 93.4699707 101.66943359 95.4699707 C99.78859234 95.7244463 99.78859234 95.7244463 97.45426941 95.73066711 C96.56999268 95.73775192 95.68571594 95.74483673 94.77464294 95.75213623 C93.80172806 95.74965881 92.82881317 95.7471814 91.82641602 95.74462891 C90.80337372 95.74973984 89.78033142 95.75485077 88.72628784 95.76011658 C85.32576728 95.77407483 81.92544826 95.77304964 78.52490234 95.77075195 C76.15993677 95.77463849 73.7949719 95.77897307 71.43000793 95.78373718 C66.45909369 95.79121497 61.48825042 95.79089905 56.51733398 95.78564453 C50.17368151 95.77988015 43.83032389 95.79669974 37.48672009 95.8199892 C32.59394148 95.83479584 27.70123248 95.83558828 22.80843544 95.83247948 C20.47187026 95.83299028 18.13530093 95.83818241 15.79875755 95.8482914 C-14.81441294 95.96436853 -14.81441294 95.96436853 -28.33056641 86.4699707 C-29.66087891 85.6037207 -29.66087891 85.6037207 -31.01806641 84.7199707 C-40.72994027 75.27057992 -46.37787687 61.98260665 -46.58056641 48.4699707 C-46.44969217 35.6006704 -43.01655796 22.75787993 -34.11181641 13.1262207 C-24.19889312 3.90894116 -13.45189074 -0.17450746 0 0 Z " fill="#FEA906" transform="translate(325.33056640625,166.530029296875)"/>
<path d="M0 0 C7.74610138 6.45268928 7.74610138 6.45268928 8.23828125 11.390625 C8.39661278 17.49055553 8.27342913 21.27673622 4 26 C-4.50893376 34.13075893 -13.74779357 34.97760532 -24.9375 35.5625 C-25.71673828 35.60568359 -26.49597656 35.64886719 -27.29882812 35.69335938 C-29.19907117 35.79828077 -31.09951669 35.8995245 -33 36 C-32.48050781 36.51949219 -31.96101562 37.03898437 -31.42578125 37.57421875 C-29.97916608 39.02083392 -28.53391878 40.46881789 -27.08984375 41.91796875 C-25.53730726 43.46470136 -23.96196134 44.98860825 -22.375 46.5 C-16.11641581 53.08798336 -12.53506644 58.56015787 -11.625 67.8125 C-11.87596747 75.02084355 -14.78052958 81.11169901 -19.6875 86.3125 C-30.33730407 96.07809524 -44.0669776 100.17640217 -58.25 100.1875 C-59.46236328 100.20586914 -59.46236328 100.20586914 -60.69921875 100.22460938 C-72.65404676 100.25330096 -83.12543299 96.87538555 -92 88.5625 C-98.11150137 81.77682822 -98.68157281 75.6607875 -98.46875 66.66015625 C-97.76218912 61.1430934 -95.77564681 57.9793124 -92 54 C-91.35804688 53.30390625 -90.71609375 52.6078125 -90.0546875 51.890625 C-83.4362466 45.39429555 -74.48978706 39.80127517 -65 39.4375 C-61.36496827 39.73150992 -58.76153337 40.49736039 -56 43 C-54.875 45.375 -54.875 45.375 -55 48 C-57.90096049 52.19027627 -61.35502553 53.70364981 -65.9375 55.8125 C-71.54141787 58.51426558 -75.41298214 61.2172542 -78 67 C-78.99525967 71.20220748 -78.31611179 74.31509111 -76.5 78.25 C-72.12321506 83.06446344 -68.34705765 84.91621299 -61.98046875 85.3828125 C-52.28367271 85.77573777 -45.85194587 85.09719873 -38.1875 78.625 C-34.91937418 74.70324902 -33.20002838 71.60022708 -32.5625 66.5 C-33.87609885 55.99120923 -45.70482065 47.93348224 -53.30859375 41.47265625 C-54.95893661 40.03575265 -56.54354939 38.63460971 -58 37 C-58 36.34 -58 35.68 -58 35 C-58.83249268 35.01571045 -59.66498535 35.0314209 -60.52270508 35.04760742 C-63.61447856 35.09876642 -66.70603618 35.1363648 -69.7980957 35.16479492 C-71.79327701 35.18728333 -73.78826213 35.22540198 -75.78320312 35.26367188 C-77.03681641 35.27333984 -78.29042969 35.28300781 -79.58203125 35.29296875 C-80.73936768 35.3086792 -81.8967041 35.32438965 -83.08911133 35.34057617 C-86 35 -86 35 -87.8659668 33.6652832 C-89.71257919 30.95360546 -89.58380602 29.17849944 -89 26 C-83.93552209 21.44942983 -79.23905729 21.35378692 -72.625 21.25 C-71.23474609 21.20552734 -71.23474609 21.20552734 -69.81640625 21.16015625 C-67.54418565 21.08988139 -65.27296541 21.03697952 -63 21 C-62.56429687 19.76378906 -62.12859375 18.52757812 -61.6796875 17.25390625 C-58.24029514 8.13771051 -51.8880044 3.93280632 -43.4765625 -0.5546875 C-31.40065336 -5.57500928 -11.24823913 -7.77683868 0 0 Z " fill="#565656" transform="translate(545,170)"/>
<path d="M0 0 C4.50987419 1.24410322 7.25198391 3.23328351 10.5 6.5625 C13.45657437 13.33798294 12.79369041 20.9563759 10.1640625 27.80078125 C6.53701787 34.65321791 1.6722844 39.25707919 -5.44482422 42.23022461 C-10.02162402 43.60903693 -14.50828082 43.49707678 -19.25 43.375 C-20.21679688 43.37371094 -21.18359375 43.37242187 -22.1796875 43.37109375 C-26.99234913 43.31143266 -30.55582244 42.98808032 -35 41 C-35.47457642 41.87398437 -35.47457642 41.87398437 -35.95874023 42.765625 C-39.1004716 48.54791083 -42.25313513 54.32410983 -45.41357422 60.09619141 C-46.8359899 62.69979438 -48.2489454 65.30828425 -49.66015625 67.91796875 C-50.43951826 69.34146677 -51.21942671 70.76466582 -52 72.1875 C-52.34861084 72.83912109 -52.69722168 73.49074219 -53.05639648 74.16210938 C-55.67498134 78.89475194 -57.87045421 81.2901514 -63 83 C-69.17037037 83.44074074 -69.17037037 83.44074074 -72 81.9375 C-73.58414557 78.86821795 -72.8928707 76.19868626 -72 73 C-70.27572513 69.03083586 -68.24011419 65.24515052 -66.1875 61.4375 C-65.60363525 60.33559326 -65.01977051 59.23368652 -64.41821289 58.09838867 C-62.62519264 54.72507118 -60.81587319 51.36106341 -59 48 C-58.47341797 47.02385742 -57.94683594 46.04771484 -57.40429688 45.04199219 C-54.95283275 40.50757435 -52.4834818 35.98355508 -49.99609375 31.46875 C-47.87248978 27.61045994 -45.7877893 23.73364316 -43.72265625 19.84375 C-43.18326416 18.83465576 -42.64387207 17.82556152 -42.08813477 16.78588867 C-41.05403749 14.84979786 -40.02681291 12.91001542 -39.00756836 10.96606445 C-38.5410083 10.0968335 -38.07444824 9.22760254 -37.59375 8.33203125 C-37.18833984 7.56608643 -36.78292969 6.8001416 -36.36523438 6.01098633 C-34.82300173 3.73928205 -33.31761265 2.4569396 -31 1 C-28.59765625 0.671875 -28.59765625 0.671875 -26.0625 0.75 C-25.1859375 0.77320313 -24.309375 0.79640625 -23.40625 0.8203125 C-21 1 -21 1 -18.0625 1.625 C-13.42129209 2.46885598 -5.90931414 -0.55880039 0 0 Z " fill="#575757" transform="translate(598,200)"/>
<path d="M0 0 C3.93623766 2.66798034 6.86673558 6.10456491 8.98828125 10.34765625 C9.93011933 18.21873165 8.90000068 24.05970625 3.98828125 30.34765625 C-2.27603522 37.08376224 -8.16639057 40.41643472 -17.390625 40.78125 C-19.78509505 40.79841939 -22.1797288 40.79927925 -24.57421875 40.78515625 C-26.3830957 40.81512695 -26.3830957 40.81512695 -28.22851562 40.84570312 C-36.1426442 40.84133309 -39.969414 40.27474091 -45.65625 34.75 C-49.60303929 29.80001343 -50.43770605 26.1680824 -50.34765625 19.97265625 C-49.4515014 12.97014394 -44.35402046 8.21470767 -39.13671875 3.88671875 C-28.33957743 -3.93326963 -12.21068989 -5.88390756 0 0 Z " fill="#565656" transform="translate(664.01171875,202.65234375)"/>
<path d="M0 0 C2.94945998 0.61044151 4.23575388 1.95839107 5.90625 4.39453125 C5.90625 5.38453125 5.90625 6.37453125 5.90625 7.39453125 C7.04054443 7.37096558 7.04054443 7.37096558 8.19775391 7.34692383 C11.64217576 7.28435078 15.08647774 7.2454692 18.53125 7.20703125 C20.31595703 7.16932617 20.31595703 7.16932617 22.13671875 7.13085938 C33.33365349 7.03703031 33.33365349 7.03703031 37.90625 10.39453125 C39.03125 12.83203125 39.03125 12.83203125 38.90625 15.39453125 C36.10772795 18.85688877 33.97505362 19.898798 29.65625 20.70703125 C23.78396063 22.16329604 19.617505 24.54211495 15.90625 29.39453125 C14.77146513 33.06398751 14.77146513 33.06398751 14.90625 36.39453125 C14.90625 37.05453125 14.90625 37.71453125 14.90625 38.39453125 C16.13601563 38.35972656 17.36578125 38.32492188 18.6328125 38.2890625 C20.26561127 38.2609108 21.8984249 38.23361212 23.53125 38.20703125 C24.33949219 38.18189453 25.14773438 38.15675781 25.98046875 38.13085938 C31.08314316 38.06863164 34.43764688 38.63961574 38.90625 41.39453125 C38.90625 43.37453125 38.90625 45.35453125 38.90625 47.39453125 C32.58709255 51.95484144 27.11522906 52.03336134 19.46875 51.95703125 C17.8280957 51.99280273 17.8280957 51.99280273 16.15429688 52.02929688 C8.03691119 52.01463573 3.25655122 50.29171632 -2.74389648 44.91625977 C-4.90125509 42.48420764 -5.1057805 40.26700797 -5.40625 37.08203125 C-4.81202523 30.070179 0.06152903 26.01903763 4.90625 21.39453125 C2.1203314 20.72440703 2.1203314 20.72440703 -1.09375 21.39453125 C-2.63052194 23.31221247 -3.71285139 25.25785953 -4.8203125 27.44921875 C-6.34727703 29.781821 -7.4980002 30.4412898 -10.09375 31.39453125 C-16.17503704 31.92797748 -16.17503704 31.92797748 -19.03125 30.26953125 C-20.64804544 27.41636282 -20.43898377 25.67610812 -20.09375 22.39453125 C-18.76696601 19.20183034 -17.0782639 16.25620827 -15.34375 13.26953125 C-14.9003125 12.47160156 -14.456875 11.67367187 -14 10.8515625 C-7.62256771 -0.38397263 -7.62256771 -0.38397263 0 0 Z " fill="#595959" transform="translate(697.09375,192.60546875)"/>
<path d="M0 0 C2.9375 2 2.9375 2 5 4 C4.48964169 8.3890815 3.47785723 11.33708062 1 15 C2.98567708 15.1953125 4.97135417 15.390625 6.95703125 15.5859375 C9 16 9 16 12 18 C12.42802678 20.78217409 12.4540785 22.31888225 10.875 24.6875 C5.34084495 28.56140853 -0.5319036 28.23009039 -7 28 C-7.38285156 29.27230469 -7.38285156 29.27230469 -7.7734375 30.5703125 C-9.08494484 34.23752093 -10.74643123 37.46574557 -12.625 40.875 C-13.25664063 42.02742188 -13.88828125 43.17984375 -14.5390625 44.3671875 C-15.02117188 45.23601562 -15.50328125 46.10484375 -16 47 C-14.95199219 46.96519531 -13.90398438 46.93039063 -12.82421875 46.89453125 C-11.44532853 46.86639063 -10.06642098 46.83909076 -8.6875 46.8125 C-7.99720703 46.78736328 -7.30691406 46.76222656 -6.59570312 46.73632812 C-1.49329467 46.66238018 -1.49329467 46.66238018 0.98046875 48.35546875 C2 50 2 50 2 52.5 C0.688929 55.7776775 -0.88326021 56.47963913 -4 58 C-4.99 58.495 -4.99 58.495 -6 59 C-9.74409898 59.26894921 -13.49733057 59.23162708 -17.25 59.25 C-18.28769531 59.270625 -19.32539062 59.29125 -20.39453125 59.3125 C-25.97296841 59.34099776 -30.26206435 59.31345827 -35 56 C-37 53 -37 53 -36.94140625 50.4296875 C-35.61838328 45.6097117 -33.32941532 41.49427586 -30.9375 37.125 C-30.46505859 36.24585938 -29.99261719 35.36671875 -29.50585938 34.4609375 C-28.34481926 32.30304476 -27.17607732 30.14972292 -26 28 C-27.11375 27.896875 -28.2275 27.79375 -29.375 27.6875 C-31.169375 27.3471875 -31.169375 27.3471875 -33 27 C-35 24 -35 24 -34.875 21.5 C-33.78249051 18.37854432 -32.843008 17.64970531 -30 16 C-26.984375 15.70703125 -26.984375 15.70703125 -23.75 15.8125 C-22.13351562 15.85310547 -22.13351562 15.85310547 -20.484375 15.89453125 C-19.66453125 15.92933594 -18.8446875 15.96414062 -18 16 C-17.88140625 15.4225 -17.7628125 14.845 -17.640625 14.25 C-15.21715479 5.73829974 -9.33949869 -1.3342141 0 0 Z " fill="#595959" transform="translate(777,185)"/>
<path d="M0 0 C3.3 0 6.6 0 10 0 C10.28875 0.78375 10.5775 1.5675 10.875 2.375 C11.84912254 5.09671632 11.84912254 5.09671632 14 7 C17.24651592 3.82662252 17.24651592 3.82662252 19 0 C22.63 0 26.26 0 30 0 C31 2 32 4 33 6 C33.99 6.33 34.98 6.66 36 7 C37.20628008 4.66785852 38.1654738 2.50357861 39 0 C45.27 0 51.54 0 58 0 C58.66 1.32 59.32 2.64 60 4 C61.5412312 5.70921589 61.5412312 5.70921589 63 7 C65.65192005 3.73837042 65.65192005 3.73837042 67 0 C70.63 0 74.26 0 78 0 C78.99 1.98 78.99 1.98 80 4 C81.5412312 5.70921589 81.5412312 5.70921589 83 7 C85.65192005 3.73837042 85.65192005 3.73837042 87 0 C90.10367497 -0.14515677 93.20648027 -0.23400853 96.3125 -0.3125 C97.19357422 -0.35439453 98.07464844 -0.39628906 98.98242188 -0.43945312 C101.41889043 -0.48577382 103.61125358 -0.48956845 106 0 C107.85546875 2.51953125 107.85546875 2.51953125 109 5 C110.32 5 111.64 5 113 5 C113.350625 4.175 113.70125 3.35 114.0625 2.5 C115.0215625 1.2625 115.0215625 1.2625 116 0 C119.69597097 -0.4661091 123.2928163 -0.28323135 127 0 C127.99 2.475 127.99 2.475 129 5 C130.32 5 131.64 5 133 5 C133.391875 4.175 133.78375 3.35 134.1875 2.5 C134.785625 1.675 135.38375 0.85 136 0 C139.03696293 -0.46096759 141.95022769 -0.28771437 145 0 C144.06409496 1.1055189 143.12620142 2.20935453 142.1875 3.3125 C141.40439453 4.23482422 141.40439453 4.23482422 140.60546875 5.17578125 C139 7 139 7 137.30078125 8.54296875 C135.66701199 10.04745402 135.66701199 10.04745402 136 13 C132.7 13 129.4 13 126 13 C125.7525 12.21625 125.505 11.4325 125.25 10.625 C123.84610901 7.67682892 122.99324263 7.0975223 120 6 C117.9375006 7.81222534 117.9375006 7.81222534 116 10 C116 10.99 116 11.98 116 13 C112.7 13 109.4 13 106 13 C105.505 11.02 105.505 11.02 105 9 C103.6132802 7.04173581 103.6132802 7.04173581 101.9375 5.25 C101.38964844 4.63640625 100.84179688 4.0228125 100.27734375 3.390625 C99.64505859 2.70226562 99.64505859 2.70226562 99 2 C94.68819268 2.48405436 92.9410446 3.62004866 90.1875 6.9375 C89.28064453 8.00291016 89.28064453 8.00291016 88.35546875 9.08984375 C86.80709626 10.88147425 86.80709626 10.88147425 87 13 C83.7 13 80.4 13 77 13 C76.505 11.02 76.505 11.02 76 9 C74.02098426 6.77022004 74.02098426 6.77022004 72 5 C70.7625 6.423125 70.7625 6.423125 69.5 7.875 C69.0359375 8.40867187 68.571875 8.94234375 68.09375 9.4921875 C66.80427542 10.95936421 66.80427542 10.95936421 67 13 C63.7 13 60.4 13 57 13 C56.505 11.02 56.505 11.02 56 9 C54.6132802 7.04173581 54.6132802 7.04173581 52.9375 5.25 C52.38964844 4.63640625 51.84179688 4.0228125 51.27734375 3.390625 C50.64505859 2.70226562 50.64505859 2.70226562 50 2 C46.20450741 2.54581199 44.69020705 4.05409295 42.25 6.9375 C41.63640625 7.64777344 41.0228125 8.35804688 40.390625 9.08984375 C38.80381172 10.87569353 38.80381172 10.87569353 39 13 C35.7 13 32.4 13 29 13 C28.67 11.68 28.34 10.36 28 9 C26.02098426 6.77022004 26.02098426 6.77022004 24 5 C21.43750025 7.31232422 21.43750025 7.31232422 19 10 C19 10.99 19 11.98 19 13 C15.7 13 12.4 13 9 13 C8.67 11.68 8.34 10.36 8 9 C6.68189096 7.10915063 6.68189096 7.10915063 5.0625 5.375 C4.53785156 4.78460938 4.01320313 4.19421875 3.47265625 3.5859375 C2.34042594 2.36661255 1.17658378 1.17658378 0 0 Z " fill="#5C5C5C" transform="translate(114,295)"/>
<path d="M0 0 C4.05698538 -0.04598598 8.11330411 -0.08578836 12.17041016 -0.10986328 C13.54967315 -0.11990253 14.92891496 -0.13353677 16.30810547 -0.15087891 C18.2938514 -0.17521754 20.2797545 -0.18543255 22.265625 -0.1953125 C24.05661621 -0.21102295 24.05661621 -0.21102295 25.88378906 -0.22705078 C28.85798164 -0.01034762 30.50318379 0.43813878 33 2 C32.67 3.65 32.34 5.3 32 7 C30.02 7.66 28.04 8.32 26 9 C30.455 11.475 30.455 11.475 35 14 C35 14.33 35 14.66 35 15 C31.37 15 27.74 15 24 15 C24 14.34 24 13.68 24 13 C23.195625 12.690625 22.39125 12.38125 21.5625 12.0625 C19 11 19 11 18 10 C16.31816052 9.76712992 14.6287584 9.58735834 12.9375 9.4375 C12.01839844 9.35371094 11.09929687 9.26992188 10.15234375 9.18359375 C9.44207031 9.12300781 8.73179687 9.06242187 8 9 C8.33 10.98 8.66 12.96 9 15 C5.7 15 2.4 15 -1 15 C-0.67 10.05 -0.34 5.1 0 0 Z " fill="#4F4F4F" transform="translate(276,293)"/>
<path d="M0 0 C0.85464844 -0.01675781 1.70929687 -0.03351563 2.58984375 -0.05078125 C5.58438313 0.38917477 6.9324094 1.17755725 9.0625 3.3125 C9.69933472 8.16836476 9.5746633 10.3247565 7.3125 14.6875 C4.41601933 18.06672745 2.59103256 19.15451744 -1.84765625 19.61328125 C-3.40806641 19.61908203 -3.40806641 19.61908203 -5 19.625 C-6.56427734 19.65013672 -6.56427734 19.65013672 -8.16015625 19.67578125 C-10.9375 19.3125 -10.9375 19.3125 -12.7734375 17.99609375 C-14.83661993 15.01209501 -14.46410869 12.82322461 -13.9375 9.3125 C-10.48815786 3.92154703 -6.63565891 0.0299353 0 0 Z " fill="#FAFAFA" transform="translate(645.9375,211.6875)"/>
<path d="M0 0 C3.1875 1.625 3.1875 1.625 5.1875 3.625 C5.1875 5.5 5.1875 5.5 4.1875 7.625 C-0.86141566 11.93778216 -4.87542992 12.21832883 -11.375 12.0625 C-12.21224609 12.06958984 -13.04949219 12.07667969 -13.91210938 12.08398438 C-19.92277186 12.02211691 -23.4615841 10.9759159 -27.8125 6.625 C-27.63071121 3.80727369 -27.04778275 2.83675447 -24.9375 0.9375 C-18.36776801 -3.12027564 -7.14132078 -2.60882198 0 0 Z " fill="#595959" transform="translate(744.8125,296.375)"/>
<path d="M0 0 C3 2 3 2 3.5 4.4375 C3 7 3 7 0.6875 8.75 C-4.32244456 11.08020677 -8.39322255 11.24752065 -13.8125 11.3125 C-14.60720703 11.34150391 -15.40191406 11.37050781 -16.22070312 11.40039062 C-21.7534205 11.45988221 -24.80103785 10.68999704 -29 7 C-29.375 4.25 -29.375 4.25 -29 2 C-20.35964352 -3.64268178 -9.52757958 -3.84925135 0 0 Z " fill="#5E5E5E" transform="translate(627,297)"/>
<path d="M0 0 C0.72896484 -0.00708984 1.45792969 -0.01417969 2.20898438 -0.02148438 C7.92517448 0.04540174 12.27128865 1.27128865 16.4375 5.4375 C16.4375 7.875 16.4375 7.875 15.4375 10.4375 C10.34903254 13.80297373 5.82663882 13.92537366 -0.0625 13.875 C-0.89136719 13.89498047 -1.72023438 13.91496094 -2.57421875 13.93554688 C-8.15344076 13.93111188 -11.33692317 13.16714901 -15.5625 9.4375 C-15.9375 6.6875 -15.9375 6.6875 -15.5625 4.4375 C-10.16293137 0.84490164 -6.43701907 -0.17737564 0 0 Z " fill="#5E5E5E" transform="translate(441.5625,294.5625)"/>
<path d="M0 0 C0.3125 2.8125 0.3125 2.8125 0 6 C-4.36393578 9.42038209 -8.34071363 10.12517404 -13.76171875 10.09765625 C-14.87998047 10.09443359 -15.99824219 10.09121094 -17.15039062 10.08789062 C-18.31763672 10.07951172 -19.48488281 10.07113281 -20.6875 10.0625 C-21.86634766 10.05798828 -23.04519531 10.05347656 -24.25976562 10.04882812 C-27.17322789 10.03703273 -30.08658863 10.0205727 -33 10 C-30.57267775 3.4883691 -26.34587095 0.63575913 -20.1875 -2.375 C-13.01127621 -3.7821027 -6.32546725 -4.10300578 0 0 Z " fill="#F4F4F4" transform="translate(534,182)"/>
<path d="M0 0 C1.77734375 1.32421875 1.77734375 1.32421875 3 3 C2.8901482 8.71229376 1.11193837 12.37654871 -2 17 C-5.26689085 20.13592418 -7.66327095 20.38375612 -12.125 20.3125 C-13.17945313 20.30863281 -14.23390625 20.30476563 -15.3203125 20.30078125 C-18 20 -18 20 -20 18 C-19.36423066 11.65290278 -15.88514536 6.1469711 -11.75 1.4375 C-7.93211381 -0.55821324 -4.22848886 -0.87895555 0 0 Z " fill="#F9F9F9" transform="translate(590,211)"/>
<path d="M0 0 C0.76763672 -0.00128906 1.53527344 -0.00257813 2.32617188 -0.00390625 C3.51629883 0.00189453 3.51629883 0.00189453 4.73046875 0.0078125 C5.90319336 0.00201172 5.90319336 0.00201172 7.09960938 -0.00390625 C11.80933612 0.00396297 16.27303051 0.35142102 20.91796875 1.1328125 C19.92796875 2.4528125 18.93796875 3.7728125 17.91796875 5.1328125 C17.24894531 4.97167969 16.57992188 4.81054688 15.890625 4.64453125 C12.34231877 4.03371901 8.95557422 3.9631879 5.35546875 3.9453125 C3.40447266 3.92404297 3.40447266 3.92404297 1.4140625 3.90234375 C-1.76904951 4.11218018 -3.44609362 4.43588573 -6.08203125 6.1328125 C-5.73758244 8.60548015 -5.73758244 8.60548015 -5.08203125 11.1328125 C-2.78894162 12.27935732 -1.28293469 12.33010367 1.26953125 12.44921875 C2.1203125 12.49111328 2.97109375 12.53300781 3.84765625 12.57617188 C4.73710937 12.61548828 5.6265625 12.65480469 6.54296875 12.6953125 C7.88875 12.76008789 7.88875 12.76008789 9.26171875 12.82617188 C11.48031158 12.93238111 13.69901755 13.03442444 15.91796875 13.1328125 C15.91796875 12.4728125 15.91796875 11.8128125 15.91796875 11.1328125 C12.28796875 11.4628125 8.65796875 11.7928125 4.91796875 12.1328125 C4.91796875 10.8128125 4.91796875 9.4928125 4.91796875 8.1328125 C10.85796875 8.1328125 16.79796875 8.1328125 22.91796875 8.1328125 C22.91796875 10.4428125 22.91796875 12.7528125 22.91796875 15.1328125 C16.89140689 15.99773573 11.00382024 16.34592855 4.91796875 16.3828125 C4.0671875 16.4034375 3.21640625 16.4240625 2.33984375 16.4453125 C-3.48534406 16.48104985 -7.80198401 15.65497792 -13.08203125 13.1328125 C-15.08203125 10.1328125 -15.08203125 10.1328125 -15.08203125 7.6953125 C-13.64914638 4.02354503 -11.47628595 2.99632488 -8.08203125 1.1328125 C-5.33491654 0.28345969 -2.86834292 0.00469835 0 0 Z " fill="#616161" transform="translate(329.08203125,291.8671875)"/>
<path d="M0 0 C-0.99 1.485 -0.99 1.485 -2 3 C-3.3303125 2.7525 -3.3303125 2.7525 -4.6875 2.5 C-10.41790827 1.65938226 -16.22424581 1.9218319 -22 2 C-22.33 2.66 -22.66 3.32 -23 4 C-22.09378906 3.96519531 -21.18757813 3.93039062 -20.25390625 3.89453125 C-5.17371419 3.55941587 -5.17371419 3.55941587 0 7 C0.73046875 9.109375 0.73046875 9.109375 1 11 C-4.51938023 14.50144322 -9.25456804 14.39007899 -15.5625 14.25 C-16.49513672 14.24484375 -17.42777344 14.2396875 -18.38867188 14.234375 C-22.74184748 14.1847308 -26.73712535 13.94614676 -31 13 C-30.01 11.68 -29.02 10.36 -28 9 C-27.01 9.33 -26.02 9.66 -25 10 C-23.59175107 10.08021999 -22.18002769 10.10765977 -20.76953125 10.09765625 C-19.96708984 10.09443359 -19.16464844 10.09121094 -18.33789062 10.08789062 C-17.50451172 10.07951172 -16.67113281 10.07113281 -15.8125 10.0625 C-14.5450293 10.05573242 -14.5450293 10.05573242 -13.25195312 10.04882812 C-11.16793845 10.03705403 -9.08396023 10.0191189 -7 10 C-7 9.67 -7 9.34 -7 9 C-8.15757812 8.96261719 -9.31515625 8.92523438 -10.5078125 8.88671875 C-12.04690561 8.82102575 -13.5859667 8.75457958 -15.125 8.6875 C-15.88554687 8.66494141 -16.64609375 8.64238281 -17.4296875 8.61914062 C-22.30950413 8.38777001 -25.70890138 7.55683672 -30 5 C-29.8125 3.1875 -29.8125 3.1875 -29 1 C-21.07550121 -5.0086859 -9.03074277 -2.33051426 0 0 Z " fill="#5F5F5F" transform="translate(388,294)"/>
<path d="M0 0 C-0.99 1.485 -0.99 1.485 -2 3 C-3.3303125 2.7525 -3.3303125 2.7525 -4.6875 2.5 C-10.41790827 1.65938226 -16.22424581 1.9218319 -22 2 C-22.33 2.66 -22.66 3.32 -23 4 C-21.02966797 4.05607422 -21.02966797 4.05607422 -19.01953125 4.11328125 C-17.28382636 4.17895657 -15.54815053 4.24540337 -13.8125 4.3125 C-12.51602539 4.34633789 -12.51602539 4.34633789 -11.19335938 4.38085938 C-2.74355832 4.73698126 -2.74355832 4.73698126 1 8 C1 8.99 1 9.98 1 11 C-4.40255167 14.37659479 -8.84591483 14.394802 -15 14.25 C-16.31484375 14.24226563 -16.31484375 14.24226563 -17.65625 14.234375 C-22.20382409 14.17958495 -26.52737322 13.91218046 -31 13 C-30.34 11.68 -29.68 10.36 -29 9 C-28.42475586 9.16298584 -27.84951172 9.32597168 -27.25683594 9.49389648 C-25.04291893 9.99037528 -23.15326203 10.11479744 -20.890625 10.09765625 C-19.75947266 10.09282227 -19.75947266 10.09282227 -18.60546875 10.08789062 C-17.82816406 10.07951172 -17.05085937 10.07113281 -16.25 10.0625 C-15.06083984 10.05573242 -15.06083984 10.05573242 -13.84765625 10.04882812 C-11.89840492 10.03708565 -9.94919262 10.01915146 -8 10 C-7.67 9.34 -7.34 8.68 -7 8 C-8.258125 8.020625 -9.51625 8.04125 -10.8125 8.0625 C-25.44102462 8.03931692 -25.44102462 8.03931692 -30 5 C-29.8125 2.625 -29.8125 2.625 -29 0 C-20.67366489 -4.55855218 -8.7630741 -2.45981027 0 0 Z " fill="#616161" transform="translate(557,294)"/>
<path d="M0 0 C4.27100028 -0.05379846 8.54132732 -0.09357782 12.8125 -0.125 C14.02744141 -0.14175781 15.24238281 -0.15851563 16.49414062 -0.17578125 C17.65751953 -0.18222656 18.82089844 -0.18867188 20.01953125 -0.1953125 C21.62985229 -0.21102295 21.62985229 -0.21102295 23.27270508 -0.22705078 C26 0 26 0 29 2 C28.8125 3.875 28.8125 3.875 28 6 C25.4375 7.25 25.4375 7.25 23 8 C25.31 9.32 27.62 10.64 30 12 C30 12.33 30 12.66 30 13 C26.63644304 13.23108407 23.35762955 13.35175167 20 13 C17.875 11.125 17.875 11.125 16 9 C13.34994997 8.06165544 10.76819756 7.55363951 8 7 C8.33 8.98 8.66 10.96 9 13 C6.03 13 3.06 13 0 13 C0 8.71 0 4.42 0 0 Z " fill="#5C5C5C" transform="translate(463,295)"/>
<path d="M0 0 C9.25324675 -0.61688312 9.25324675 -0.61688312 12.875 2.375 C13.57625 3.24125 14.2775 4.1075 15 5 C17.06248402 6.16193323 17.06248402 6.16193323 19 7 C19.31710937 6.4946875 19.63421875 5.989375 19.9609375 5.46875 C23.72697135 0.22543216 23.72697135 0.22543216 27.625 -0.46484375 C30.08808989 -0.4403528 32.54773551 -0.23197096 35 0 C34.67 3.96 34.34 7.92 34 12 C34.66 12.33 35.32 12.66 36 13 C33.03 13 30.06 13 27 13 C27.33 10.36 27.66 7.72 28 5 C27.30132813 5.5775 26.60265625 6.155 25.8828125 6.75 C24.97273437 7.4925 24.06265625 8.235 23.125 9 C22.22007812 9.7425 21.31515625 10.485 20.3828125 11.25 C18 13 18 13 16 13 C16 12.34 16 11.68 16 11 C15.443125 10.7525 14.88625 10.505 14.3125 10.25 C11.60028873 8.78393985 9.36412635 6.97010529 7 5 C7.33 7.64 7.66 10.28 8 13 C5.36 13 2.72 13 0 13 C0 8.71 0 4.42 0 0 Z " fill="#5A5A5A" transform="translate(754,295)"/>
<path d="M0 0 C4.08350919 -0.05388795 8.16630899 -0.09362147 12.25 -0.125 C13.98830078 -0.15013672 13.98830078 -0.15013672 15.76171875 -0.17578125 C16.87675781 -0.18222656 17.99179687 -0.18867188 19.140625 -0.1953125 C20.68024902 -0.21102295 20.68024902 -0.21102295 22.25097656 -0.22705078 C25.01984288 0.00163889 26.64418792 0.5756701 29 2 C28.125 5.875 28.125 5.875 27 7 C25.58429877 7.08651611 24.164405 7.10704904 22.74609375 7.09765625 C21.89208984 7.09443359 21.03808594 7.09121094 20.15820312 7.08789062 C19.26037109 7.07951172 18.36253906 7.07113281 17.4375 7.0625 C16.53580078 7.05798828 15.63410156 7.05347656 14.70507812 7.04882812 C12.46998686 7.03700225 10.23502563 7.0205222 8 7 C8.33 8.98 8.66 10.96 9 13 C6.03 13 3.06 13 0 13 C0 8.71 0 4.42 0 0 Z " fill="#5A5A5A" transform="translate(635,295)"/>
<path d="M0 0 C4.08350919 -0.05388795 8.16630899 -0.09362147 12.25 -0.125 C13.98830078 -0.15013672 13.98830078 -0.15013672 15.76171875 -0.17578125 C16.87675781 -0.18222656 17.99179687 -0.18867188 19.140625 -0.1953125 C20.68024902 -0.21102295 20.68024902 -0.21102295 22.25097656 -0.22705078 C25.01984288 0.00163889 26.64418792 0.5756701 29 2 C28.6875 3.9375 28.6875 3.9375 28 6 C25.29283758 6.90238747 23.76223232 7.11851302 20.98828125 7.09765625 C19.85229492 7.09282227 19.85229492 7.09282227 18.69335938 7.08789062 C17.90767578 7.07951172 17.12199219 7.07113281 16.3125 7.0625 C15.51521484 7.05798828 14.71792969 7.05347656 13.89648438 7.04882812 C11.93095743 7.0370585 9.96546915 7.01912348 8 7 C8.33 8.98 8.66 10.96 9 13 C6.03 13 3.06 13 0 13 C0 8.71 0 4.42 0 0 Z " fill="#676767" transform="translate(394,295)"/>
<path d="M0 0 C2.64 0 5.28 0 8 0 C7.67 1.65 7.34 3.3 7 5 C11.95 5 16.9 5 22 5 C22 3.35 22 1.7 22 0 C24.64 0 27.28 0 30 0 C30 4.29 30 8.58 30 13 C27.69 13 25.38 13 23 13 C23 11.02 23 9.04 23 7 C17.72 7 12.44 7 7 7 C7.33 8.98 7.66 10.96 8 13 C5.03 13 2.06 13 -1 13 C-0.67 8.71 -0.34 4.42 0 0 Z " fill="#616161" transform="translate(563,295)"/>
<path d="M0 0 C0.33 0 0.66 0 1 0 C1 4.29 1 8.58 1 13 C2.98 13 4.96 13 7 13 C7 9.04 7 5.08 7 1 C12.94 1 18.88 1 25 1 C25 2.32 25 3.64 25 5 C24.34 5.66 23.68 6.32 23 7 C23.57234375 7.28617187 24.1446875 7.57234375 24.734375 7.8671875 C29.8671875 10.43359375 29.8671875 10.43359375 35 13 C35 13.33 35 13.66 35 14 C31.37 14 27.74 14 24 14 C24 13.34 24 12.68 24 12 C23.195625 11.690625 22.39125 11.38125 21.5625 11.0625 C19 10 19 10 18 9 C16.31816052 8.76712992 14.6287584 8.58735834 12.9375 8.4375 C12.01839844 8.35371094 11.09929687 8.26992188 10.15234375 8.18359375 C9.44207031 8.12300781 8.73179687 8.06242187 8 8 C8.33 9.98 8.66 11.96 9 14 C5.7 14 2.4 14 -1 14 C-0.67 9.38 -0.34 4.76 0 0 Z " fill="#757575" transform="translate(276,294)"/>
<path d="M0 0 C0.74701172 -0.01224609 1.49402344 -0.02449219 2.26367188 -0.03710938 C6.80272437 -0.04906474 10.41249142 0.46798145 14.6875 2.1875 C13.6975 3.6725 13.6975 3.6725 12.6875 5.1875 C12.18476562 5.02507812 11.68203125 4.86265625 11.1640625 4.6953125 C7.79761817 4.00503212 4.4823949 4.04284543 1.0625 4.0625 C0.0415625 4.05669922 0.0415625 4.05669922 -1 4.05078125 C-4.78207632 4.00344889 -4.78207632 4.00344889 -8.3125 5.1875 C-7.96463292 7.16286745 -7.96463292 7.16286745 -7.3125 9.1875 C-4.50346379 10.5920181 -2.13135492 10.31959254 1 10.3125 C2.13050781 10.31507813 3.26101563 10.31765625 4.42578125 10.3203125 C7.63292433 10.28144608 7.63292433 10.28144608 10.4921875 9.58984375 C11.21664062 9.45707031 11.94109375 9.32429688 12.6875 9.1875 C14.5 10.625 14.5 10.625 15.6875 12.1875 C10.67331928 13.18231345 5.84057564 13.40370365 0.75 13.4375 C-0.02279297 13.458125 -0.79558594 13.47875 -1.59179688 13.5 C-6.90413487 13.53592452 -10.63479346 12.77061993 -15.3125 10.1875 C-16.25 7.5 -16.25 7.5 -16.3125 5.1875 C-10.82095335 0.58647443 -7.0170547 0.00596181 0 0 Z " fill="#585858" transform="translate(698.3125,294.8125)"/>
<path d="M0 0 C6.625 0.75 6.625 0.75 10 3 C10 3.99 10 4.98 10 6 C4.59744833 9.37659479 0.15408517 9.394802 -6 9.25 C-7.31484375 9.24226563 -7.31484375 9.24226563 -8.65625 9.234375 C-13.20382409 9.17958495 -17.52737322 8.91218046 -22 8 C-21.34 6.68 -20.68 5.36 -20 4 C-19.13713379 4.24447876 -19.13713379 4.24447876 -18.25683594 4.49389648 C-16.04291893 4.99037528 -14.15326203 5.11479744 -11.890625 5.09765625 C-10.75947266 5.09282227 -10.75947266 5.09282227 -9.60546875 5.08789062 C-8.82816406 5.07951172 -8.05085937 5.07113281 -7.25 5.0625 C-6.06083984 5.05573242 -6.06083984 5.05573242 -4.84765625 5.04882812 C-2.89840492 5.03708565 -0.94919262 5.01915146 1 5 C1.33 4.34 1.66 3.68 2 3 C-0.97 3 -3.94 3 -7 3 C-7 2.67 -7 2.34 -7 2 C-4.69 2 -2.38 2 0 2 C0 1.34 0 0.68 0 0 Z " fill="#696969" transform="translate(548,299)"/>
<path d="M0 0 C-0.99 1.485 -0.99 1.485 -2 3 C-3.3303125 2.7525 -3.3303125 2.7525 -4.6875 2.5 C-10.41790827 1.65938226 -16.22424581 1.9218319 -22 2 C-22.33 2.66 -22.66 3.32 -23 4 C-18.38 4 -13.76 4 -9 4 C-9 4.33 -9 4.66 -9 5 C-12.63 5.33 -16.26 5.66 -20 6 C-18.68 6.66 -17.36 7.32 -16 8 C-21.67276511 8.29341888 -24.99067246 8.00559652 -30 5 C-29.8125 3.1875 -29.8125 3.1875 -29 1 C-21.07550121 -5.0086859 -9.03074277 -2.33051426 0 0 Z " fill="#757575" transform="translate(388,294)"/>
<path d="M0 0 C-0.25 1.875 -0.25 1.875 -1 4 C-4.00549431 5.92920243 -6.46409929 6.29632972 -10 6.3125 C-10.845625 6.32925781 -11.69125 6.34601563 -12.5625 6.36328125 C-15.45330535 5.93244007 -16.82826275 4.90529726 -19 3 C-18.8125 1.125 -18.8125 1.125 -18 -1 C-11.82676346 -4.63131561 -5.91766691 -3.46400014 0 0 Z " fill="#F4F4F4" transform="translate(743,300)"/>
<path d="M0 0 C3.0625 1.25 3.0625 1.25 5 3 C5 4.32 5 5.64 5 7 C1.72311897 8.95218444 -0.77069727 9.27063566 -4.5625 9.25 C-5.98755859 9.25773437 -5.98755859 9.25773437 -7.44140625 9.265625 C-10 9 -10 9 -13 7 C-12.6875 4.625 -12.6875 4.625 -12 2 C-7.95407186 -0.69728543 -4.74747505 -0.54043061 0 0 Z " fill="#F3F3F3" transform="translate(618,297)"/>
<path d="M0 0 C2.5625 1.5 2.5625 1.5 4 3 C3.75 4.875 3.75 4.875 3 7 C-0.0358254 8.9599234 -2.48906464 9.27155919 -6.0625 9.25 C-6.91972656 9.25515625 -7.77695312 9.2603125 -8.66015625 9.265625 C-11 9 -11 9 -14 7 C-13.75 4.625 -13.75 4.625 -13 2 C-8.91887899 -0.64550543 -4.70858101 -0.59613227 0 0 Z " fill="#F4F4F4" transform="translate(447,297)"/>
<path d="M0 0 C9.24 0 18.48 0 28 0 C27.67 1.32 27.34 2.64 27 4 C23.7 3.67 20.4 3.34 17 3 C17.33 6.63 17.66 10.26 18 14 C15.69 14 13.38 14 11 14 C11 10.37 11 6.74 11 3 C7.37 3.33 3.74 3.66 0 4 C0 2.68 0 1.36 0 0 Z " fill="#555555" transform="translate(495,294)"/>
<path d="M0 0 C4.95 0 9.9 0 15 0 C15 0.99 15 1.98 15 3 C16.32 3.66 17.64 4.32 19 5 C18.01 5.33 17.02 5.66 16 6 C18.31 7.32 20.62 8.64 23 10 C23 10.33 23 10.66 23 11 C13.83916084 11.62937063 13.83916084 11.62937063 10.5 9.125 C10.005 8.42375 9.51 7.7225 9 7 C6.3144406 4.3144406 3.62378672 3.93950026 0 3 C0 2.01 0 1.02 0 0 Z " fill="#5E5E5E" transform="translate(470,297)"/>
<path d="M0 0 C2.64 0 5.28 0 8 0 C8 4.29 8 8.58 8 13 C5.69 13 3.38 13 1 13 C1 11.02 1 9.04 1 7 C-4.28 7 -9.56 7 -15 7 C-15 6.67 -15 6.34 -15 6 C-10.05 6 -5.1 6 0 6 C0 4.02 0 2.04 0 0 Z " fill="#575757" transform="translate(585,295)"/>
<path d="M0 0 C6.6 0 13.2 0 20 0 C20 0.33 20 0.66 20 1 C15.05 1 10.1 1 5 1 C5 1.99 5 2.98 5 4 C9.95 4 14.9 4 20 4 C20 4.66 20 5.32 20 6 C15.05 6 10.1 6 5 6 C5 7.65 5 9.3 5 11 C3.35 11 1.7 11 0 11 C0 7.37 0 3.74 0 0 Z " fill="#515151" transform="translate(396,296)"/>
<path d="M0 0 C5.94 0 11.88 0 18 0 C18 2.31 18 4.62 18 7 C13.05 7.33 8.1 7.66 3 8 C6 5 6 5 8.6875 4.8125 C9.8321875 4.9053125 9.8321875 4.9053125 11 5 C11 4.34 11 3.68 11 3 C7.37 3.33 3.74 3.66 0 4 C0 2.68 0 1.36 0 0 Z " fill="#6C6C6C" transform="translate(334,300)"/>
<path d="M0 0 C4.75 0.75 4.75 0.75 7 3 C7 4.875 7 4.875 6 7 C1.43033181 10.76407319 -2.11178318 11.54039465 -7.875 11.25 C-8.56335938 11.23195313 -9.25171875 11.21390625 -9.9609375 11.1953125 C-11.6412381 11.14863748 -13.32081163 11.07690939 -15 11 C-15 10.34 -15 9.68 -15 9 C-10.71 8.34 -6.42 7.68 -2 7 C-1.34 4.69 -0.68 2.38 0 0 Z " fill="#575757" transform="translate(743,297)"/>
<path d="M0 0 C2.85423192 -0.02718316 5.70820015 -0.04692705 8.5625 -0.0625 C9.36236328 -0.07087891 10.16222656 -0.07925781 10.98632812 -0.08789062 C15.77163104 -0.10742247 20.28145051 0.19562982 25 1 C24.01 2.32 23.02 3.64 22 5 C21.3296875 4.83886719 20.659375 4.67773438 19.96875 4.51171875 C16.44161501 3.90375206 13.07886725 3.83039434 9.5 3.8125 C8.2109375 3.79832031 6.921875 3.78414063 5.59375 3.76953125 C2.22852954 3.9853443 0.00468046 4.53810739 -3 6 C-3 4.68 -3 3.36 -3 2 C-2.01 2 -1.02 2 0 2 C0 1.34 0 0.68 0 0 Z " fill="#656565" transform="translate(325,292)"/>
<path d="M0 0 C0.99 0.33 1.98 0.66 3 1 C3.70381157 2.98723268 4.3711811 4.98777953 5 7 C7.70183055 8.35091528 10.11808206 8.33858058 13.125 8.5625 C14.76855469 8.68818359 14.76855469 8.68818359 16.4453125 8.81640625 C17.28835938 8.87699219 18.13140625 8.93757813 19 9 C18.67 9.66 18.34 10.32 18 11 C15.62374823 11.10883596 13.25256024 11.18766696 10.875 11.25 C10.20984375 11.28351563 9.5446875 11.31703125 8.859375 11.3515625 C3.74424356 11.45185919 0.88637415 10.28341902 -3 7 C-3.5625 4.375 -3.5625 4.375 -3 2 C-2.01 1.34 -1.02 0.68 0 0 Z " fill="#585858" transform="translate(429,297)"/>
<path d="M0 0 C0.33 1.65 0.66 3.3 1 5 C-2.53411321 7.12046792 -5.94393835 7.53199289 -10 8 C-10.33 7.34 -10.66 6.68 -11 6 C-9.68 5.34 -8.36 4.68 -7 4 C-7 3.34 -7 2.68 -7 2 C-12.61 1.67 -18.22 1.34 -24 1 C-24 0.67 -24 0.34 -24 0 C-7.1070615 -1.33257403 -7.1070615 -1.33257403 0 0 Z " fill="#595959" transform="translate(308,294)"/>
<path d="M0 0 C0.74701172 -0.01224609 1.49402344 -0.02449219 2.26367188 -0.03710938 C6.80272437 -0.04906474 10.41249142 0.46798145 14.6875 2.1875 C13.6975 3.6725 13.6975 3.6725 12.6875 5.1875 C12.18347656 5.02507812 11.67945313 4.86265625 11.16015625 4.6953125 C7.79060135 4.0033028 4.56237902 4.05577981 1.125 4.0625 C0.11663086 4.05669922 0.11663086 4.05669922 -0.91210938 4.05078125 C-3.98749752 4.05688927 -6.37276313 4.20758771 -9.3125 5.1875 C-9.9725 3.8675 -10.6325 2.5475 -11.3125 1.1875 C-7.52063919 -0.0764536 -3.9499828 0.00335598 0 0 Z " fill="#5D5D5D" transform="translate(698.3125,294.8125)"/>
<path d="M0 0 C0.98120464 3.05263664 0.98120464 4.94736336 0 8 C0.66 8.33 1.32 8.66 2 9 C1.67 9.33 1.34 9.66 1 10 C1.66 10.66 2.32 11.32 3 12 C-1.11345859 11.53256152 -4.11139055 11.11081018 -7 8 C-7.5625 5.5 -7.5625 5.5 -7 3 C-4.6167054 1.18116991 -3.04181663 0 0 0 Z " fill="#626262" transform="translate(605,296)"/>
<path d="M0 0 C5.61 0 11.22 0 17 0 C17 1.32 17 2.64 17 4 C11.39 4 5.78 4 0 4 C0 2.68 0 1.36 0 0 Z " fill="#F8F8F8" transform="translate(284,295)"/>
<path d="M0 0 C6.76594019 -0.11381955 13.28837062 0.11978631 20 1 C19.67 1.99 19.34 2.98 19 4 C16.20826945 4.02690104 13.41679652 4.04679053 10.625 4.0625 C9.43390625 4.07506836 9.43390625 4.07506836 8.21875 4.08789062 C2.2265625 4.11328125 2.2265625 4.11328125 0 3 C0 2.01 0 1.02 0 0 Z " fill="#EEEEEE" transform="translate(530,301)"/>
<path d="M0 0 C13.6332574 -0.3690205 13.6332574 -0.3690205 20 2 C19.01 3.485 19.01 3.485 18 5 C15.77057252 4.85820962 13.54146372 4.71140302 11.3125 4.5625 C10.07113281 4.48128906 8.82976563 4.40007812 7.55078125 4.31640625 C4.61819663 4.05508683 1.86558383 3.65201621 -1 3 C-0.67 2.01 -0.34 1.02 0 0 Z " fill="#E8E8E8" transform="translate(535,295)"/>
<path d="M0 0 C6.6 0.33 13.2 0.66 20 1 C20 1.99 20 2.98 20 4 C14.06 4 8.12 4 2 4 C1.34 2.68 0.68 1.36 0 0 Z " fill="#F6F6F6" transform="translate(361,301)"/>
<path d="M0 0 C13.6332574 -0.3690205 13.6332574 -0.3690205 20 2 C20 2.99 20 3.98 20 5 C13.07 4.34 6.14 3.68 -1 3 C-0.67 2.01 -0.34 1.02 0 0 Z " fill="#EFEFEF" transform="translate(366,295)"/>
<path d="M0 0 C1.31871094 -0.01417969 2.63742187 -0.02835937 3.99609375 -0.04296875 C7.2175867 0.16521097 8.90170999 0.46581234 11.5625 2.1875 C11.2325 3.1775 10.9025 4.1675 10.5625 5.1875 C9.716875 4.8575 8.87125 4.5275 8 4.1875 C3.41885989 2.8548047 -0.54948481 2.7154962 -5.1875 3.875 C-5.93 3.978125 -6.6725 4.08125 -7.4375 4.1875 C-9.25 2.75 -9.25 2.75 -10.4375 1.1875 C-6.90252138 0.00917379 -3.67856929 0.00352691 0 0 Z " fill="#636363" transform="translate(732.4375,294.8125)"/>
<path d="M0 0 C3.08325358 -0.0582253 6.16636505 -0.09367134 9.25 -0.125 C10.55904297 -0.15013672 10.55904297 -0.15013672 11.89453125 -0.17578125 C12.73886719 -0.18222656 13.58320313 -0.18867188 14.453125 -0.1953125 C15.22817383 -0.20578613 16.00322266 -0.21625977 16.80175781 -0.22705078 C19.25883539 0.02673444 20.87311542 0.77555848 23 2 C21 4 21 4 18.84521484 4.04345703 C17.54124756 3.90206299 17.54124756 3.90206299 16.2109375 3.7578125 C15.26992188 3.66113281 14.32890625 3.56445312 13.359375 3.46484375 C11.88210938 3.29662109 11.88210938 3.29662109 10.375 3.125 C9.38242187 3.02058594 8.38984375 2.91617187 7.3671875 2.80859375 C4.91025414 2.5487258 2.45484508 2.27880162 0 2 C0 1.34 0 0.68 0 0 Z " fill="#515151" transform="translate(365,293)"/>
<path d="M0 0 C0.886875 0.309375 1.77375 0.61875 2.6875 0.9375 C8.30877947 2.57510414 14.18552198 2.66774411 20 3 C18 5 18 5 14.953125 5.23046875 C13.12007812 5.20919922 13.12007812 5.20919922 11.25 5.1875 C9.43242188 5.17783203 9.43242188 5.17783203 7.578125 5.16796875 C4.30079009 5.01412006 1.21850896 4.61704543 -2 4 C-1.34 2.68 -0.68 1.36 0 0 Z " fill="#595959" transform="translate(528,303)"/>
<path d="M0 0 C2.89589652 -0.02706445 5.79153795 -0.04687029 8.6875 -0.0625 C9.91243164 -0.07506836 9.91243164 -0.07506836 11.16210938 -0.08789062 C15.24499084 -0.10442051 19.01651707 -0.03035098 23 1 C22.01 2.485 22.01 2.485 21 4 C17.68604792 3.72350393 14.37428395 3.42627566 11.0625 3.125 C9.64420898 3.00705078 9.64420898 3.00705078 8.19726562 2.88671875 C7.29814453 2.80292969 6.39902344 2.71914063 5.47265625 2.6328125 C4.64000244 2.55949707 3.80734863 2.48618164 2.94946289 2.41064453 C2.30614014 2.27513184 1.66281738 2.13961914 1 2 C0.67 1.34 0.34 0.68 0 0 Z " fill="#575757" transform="translate(534,293)"/>
<path d="M0 0 C6.93 0 13.86 0 21 0 C21.33 1.32 21.66 2.64 22 4 C21 5 21 5 17.4375 5.0625 C16.303125 5.041875 15.16875 5.02125 14 5 C14.33 3.68 14.66 2.36 15 1 C10.05 1 5.1 1 0 1 C0 0.67 0 0.34 0 0 Z " fill="#535353" transform="translate(470,296)"/>
<path d="M0 0 C4.95 0 9.9 0 15 0 C15 0.99 15 1.98 15 3 C10.05 3 5.1 3 0 3 C0 2.01 0 1.02 0 0 Z " fill="#E1E1E1" transform="translate(470,297)"/>
<path d="M0 0 C1.65 0.33 3.3 0.66 5 1 C4.75 3.375 4.75 3.375 4 6 C2.1875 7.375 2.1875 7.375 0 8 C-2.25 7.625 -2.25 7.625 -4 7 C-3.34 6.34 -2.68 5.68 -2 5 C-1.29289322 3.35008418 -0.62056011 1.68437744 0 0 Z " fill="#595959" transform="translate(453,299)"/>
<path d="M0 0 C4.62 0 9.24 0 14 0 C14 0.99 14 1.98 14 3 C9.38 3 4.76 3 0 3 C0 2.01 0 1.02 0 0 Z " fill="#E3E3E3" transform="translate(401,297)"/>
<path d="M0 0 C6.75 0.875 6.75 0.875 9 2 C8.67 3.32 8.34 4.64 8 6 C6.02 6.33 4.04 6.66 2 7 C1.34 4.69 0.68 2.38 0 0 Z " fill="#616161" transform="translate(414,295)"/>
<path d="M0 0 C4.29 0 8.58 0 13 0 C13.33 0.99 13.66 1.98 14 3 C9.38 3 4.76 3 0 3 C0 2.01 0 1.02 0 0 Z " fill="#E8E8E8" transform="translate(643,297)"/>
<path d="M0 0 C-0.875 3.875 -0.875 3.875 -2 5 C-3.66617115 5.04063832 -5.33388095 5.042721 -7 5 C-7.33 3.35 -7.66 1.7 -8 0 C-4.94736336 -0.98120464 -3.05263664 -0.98120464 0 0 Z " fill="#616161" transform="translate(664,297)"/>
<path d="M0 0 C4.12751449 0.60698743 7.3321148 2.03810791 11 4 C11 4.33 11 4.66 11 5 C7.37 5 3.74 5 0 5 C-0.33 4.01 -0.66 3.02 -1 2 C-0.67 1.34 -0.34 0.68 0 0 Z " fill="#5D5D5D" transform="translate(300,303)"/>
<path d="M0 0 C4.05606165 0.46800711 7.46588679 0.87953208 11 3 C9.125 4.0625 9.125 4.0625 7 5 C6.34 4.67 5.68 4.34 5 4 C2.795636 3.77049681 0.58607827 3.58924067 -1.625 3.4375 C-2.81351563 3.35371094 -4.00203125 3.26992188 -5.2265625 3.18359375 C-6.59941406 3.09271484 -6.59941406 3.09271484 -8 3 C-8 2.67 -8 2.34 -8 2 C-5.36 1.67 -2.72 1.34 0 1 C0 0.67 0 0.34 0 0 Z " fill="#838383" transform="translate(702,295)"/>
<path d="M0 0 C1.13598633 0.00483398 1.13598633 0.00483398 2.29492188 0.00976562 C3.47344727 0.02233398 3.47344727 0.02233398 4.67578125 0.03515625 C5.47306641 0.03966797 6.27035156 0.04417969 7.09179688 0.04882812 C9.05732382 0.06059775 11.0228121 0.07853277 12.98828125 0.09765625 C12.98828125 0.42765625 12.98828125 0.75765625 12.98828125 1.09765625 C8.03828125 1.09765625 3.08828125 1.09765625 -2.01171875 1.09765625 C-2.34171875 2.41765625 -2.67171875 3.73765625 -3.01171875 5.09765625 C-4.00171875 6.58265625 -4.00171875 6.58265625 -5.01171875 8.09765625 C-5.67171875 5.78765625 -6.33171875 3.47765625 -7.01171875 1.09765625 C-4.30455633 0.19526878 -2.77395107 -0.02085677 0 0 Z " fill="#777777" transform="translate(437.01171875,294.90234375)"/>
<path d="M0 0 C0.9796875 -0.01675781 1.959375 -0.03351563 2.96875 -0.05078125 C4.22171875 0.12904297 4.22171875 0.12904297 5.5 0.3125 C6.16 1.3025 6.82 2.2925 7.5 3.3125 C2.37416389 3.41501672 -2.44997778 3.34840199 -7.5 2.3125 C-4.88826365 -0.29923635 -3.62801112 0.0143211 0 0 Z " fill="#555555" transform="translate(373.5,298.6875)"/>
<path d="M0 0 C0 0.33 0 0.66 0 1 C-12.66970387 2.33257403 -12.66970387 2.33257403 -18 1 C-18 0.67 -18 0.34 -18 0 C-15.94065741 -0.39196857 -13.8773063 -0.7629141 -11.8125 -1.125 C-10.66394531 -1.33382813 -9.51539063 -1.54265625 -8.33203125 -1.7578125 C-4.85876773 -2.01026542 -3.06623473 -1.5591024 0 0 Z " fill="#656565" transform="translate(714,306)"/>
<path d="M0 0 C2 3 2 3 1.625 5.6875 C1.41875 6.450625 1.2125 7.21375 1 8 C-1.04119788 6.38405168 -3.04072937 4.7143618 -5 3 C-5 2.34 -5 1.68 -5 1 C-3.68 1.33 -2.36 1.66 -1 2 C-0.67 1.34 -0.34 0.68 0 0 Z " fill="#FEAC12" transform="translate(196,224)"/>
<path d="M0 0 C2.31 0 4.62 0 7 0 C7 0.99 7 1.98 7 3 C4.69 3 2.38 3 0 3 C0 2.01 0 1.02 0 0 Z " fill="#5C5C5C" transform="translate(669,305)"/>
<path d="M0 0 C3.16115776 1.36983503 3.9927092 1.9890638 6 5 C3.03 4.67 0.06 4.34 -3 4 C-2.01 2.68 -1.02 1.36 0 0 Z " fill="#6E6E6E" transform="translate(360,303)"/>
<path d="M0 0 C2.475 0.99 2.475 0.99 5 2 C5 2.99 5 3.98 5 5 C2.69 4.67 0.38 4.34 -2 4 C-1.34 3.67 -0.68 3.34 0 3 C0 2.01 0 1.02 0 0 Z " fill="#676767" transform="translate(723,303)"/>
<path d="M0 0 C1.98 0 3.96 0 6 0 C6 0.99 6 1.98 6 3 C4.02 3 2.04 3 0 3 C0 2.01 0 1.02 0 0 Z " fill="#545454" transform="translate(261,305)"/>
<path d="M0 0 C4.95 0 9.9 0 15 0 C15 0.33 15 0.66 15 1 C14.24074219 1.06058594 13.48148438 1.12117188 12.69921875 1.18359375 C11.70535156 1.26738281 10.71148438 1.35117187 9.6875 1.4375 C8.70136719 1.51871094 7.71523438 1.59992188 6.69921875 1.68359375 C3.90624401 1.91812559 3.90624401 1.91812559 1 3 C0.67 2.01 0.34 1.02 0 0 Z " fill="#4E4E4E" transform="translate(605,296)"/>
<path d="M0 0 C2.31 0 4.62 0 7 0 C5.515 1.98 5.515 1.98 4 4 C2.35 3.67 0.7 3.34 -1 3 C-0.67 2.01 -0.34 1.02 0 0 Z " fill="#717171" transform="translate(343,293)"/>
<path d="M0 0 C0.66 0.33 1.32 0.66 2 1 C1.01 2.485 1.01 2.485 0 4 C0 4.66 0 5.32 0 6 C-1.65 6 -3.3 6 -5 6 C-5 5.01 -5 4.02 -5 3 C-2.625 1.25 -2.625 1.25 0 0 Z " fill="#666666" transform="translate(743,302)"/>
<path d="M0 0 C1.3921875 0.3403125 1.3921875 0.3403125 2.8125 0.6875 C1.8225 2.1725 1.8225 2.1725 0.8125 3.6875 C-1.4975 3.3575 -3.8075 3.0275 -6.1875 2.6875 C-4.14987265 -0.14253799 -3.59070275 -0.35202968 0 0 Z " fill="#636363" transform="translate(385.1875,293.3125)"/>
<path d="M0 0 C0.66 0.33 1.32 0.66 2 1 C2 2.65 2 4.3 2 6 C1.01 6 0.02 6 -1 6 C-1.33 5.01 -1.66 4.02 -2 3 C-1.34 2.01 -0.68 1.02 0 0 Z " fill="#FCAD14" transform="translate(293,243)"/>
</svg>
